<svg xmlns="http://www.w3.org/2000/svg" width="120" height="120" viewBox="0 0 120 120"><defs><style>.a{fill:#ff717f;}.b{fill:#ffa700;}.c,.f{fill:#fff;}.d{fill:none;}.e,.f{stroke:none;}</style></defs><g transform="translate(3 87.405)"><path class="e" d="M 20.24913024902344 -9.084624290466309 C 18.26227951049805 -9.084624290466309 16.52557945251465 -9.666774749755859 15.22677993774414 -10.76815414428711 C 14.1703405380249 -11.6640043258667 12.91102027893066 -13.33953475952148 12.91102027893066 -16.23429489135742 C 12.91102027893066 -17.30130386352539 13.01961040496826 -18.27742385864258 13.12462997436523 -19.22141456604004 C 13.16217041015625 -19.55886459350586 13.20099067687988 -19.90781402587891 13.23402976989746 -20.25476455688477 L 13.23824024200439 -20.29901504516602 L 13.24442005157471 -20.3430347442627 L 16.3788948059082 -42.68307495117188 L 9.761310577392578 -42.68307495117188 C 5.857770442962646 -42.68307495117188 2.800000190734863 -45.68565368652344 2.800000190734863 -49.51873397827148 C 2.800000190734863 -51.38938522338867 3.521010160446167 -53.14060592651367 4.830220222473145 -54.44980239868164 C 6.139430046081543 -55.75899505615234 7.890660285949707 -56.48000335693359 9.761310577392578 -56.48000335693359 L 39.27793884277344 -56.48000335693359 C 41.1513786315918 -56.48000335693359 42.89588165283203 -55.75453567504883 44.19007873535156 -54.43723297119141 C 45.47100067138672 -53.13344573974609 46.17644119262695 -51.38668441772461 46.17644119262695 -49.51873397827148 C 46.17644119262695 -47.64524459838867 45.46202850341797 -45.91182327270508 44.16482162475586 -44.63779449462891 C 42.88138198852539 -43.37727355957031 41.14585113525391 -42.68307495117188 39.27793884277344 -42.68307495117188 L 31.47480964660645 -42.68307495117188 L 27.7568302154541 -15.77217388153076 L 27.75341987609863 -15.74750423431396 L 27.7494010925293 -15.72291469573975 C 27.40522003173828 -13.61961460113525 26.47573089599609 -11.89187431335449 25.06139945983887 -10.72648429870605 C 23.75786018371582 -9.652374267578125 22.09379959106445 -9.084624290466309 20.24913024902344 -9.084624290466309 Z"/><path class="f" d="M 9.761310577392578 -54.48000335693359 C 6.998050689697266 -54.48000335693359 4.799999237060547 -52.28197479248047 4.799999237060547 -49.51873397827148 C 4.799999237060547 -46.7555046081543 6.998050689697266 -44.68307495117188 9.761310577392578 -44.68307495117188 L 18.67910003662109 -44.68307495117188 L 15.22502136230469 -20.06514358520508 C 15.09941864013672 -18.74633407592773 14.91101837158203 -17.55311584472656 14.91101837158203 -16.23430252075195 C 14.91101837158203 -12.59184265136719 17.42307090759277 -11.08462524414062 20.24913024902344 -11.08462524414062 C 22.88678932189941 -11.08462524414062 25.21043968200684 -12.59184265136719 25.77565002441406 -16.04589462280273 L 29.73213005065918 -44.68307495117188 L 39.27793884277344 -44.68307495117188 C 42.04119110107422 -44.68307495117188 44.17644119262695 -46.7555046081543 44.17644119262695 -49.51873397827148 C 44.17644119262695 -52.28197479248047 42.04119110107422 -54.48000335693359 39.27793884277344 -54.48000335693359 L 9.761310577392578 -54.48000335693359 M 9.761310577392578 -58.48000335693359 L 39.27793884277344 -58.48000335693359 C 41.69229125976562 -58.48000335693359 43.94345855712891 -57.54203414916992 45.61674118041992 -55.83888244628906 C 47.26739120483398 -54.15877532958984 48.17644119262695 -51.91423416137695 48.17644119262695 -49.51873397827148 C 48.17644119262695 -44.56415557861328 44.26774978637695 -40.68307495117188 39.27793884277344 -40.68307495117188 L 33.21748733520508 -40.68307495117188 L 29.73801040649414 -15.49845504760742 L 29.7311897277832 -15.44910430908203 L 29.7231502532959 -15.39993286132812 C 29.29951095581055 -12.81105422973633 28.12730026245117 -10.66126251220703 26.3332405090332 -9.182975769042969 C 24.66727066040039 -7.810222625732422 22.56341934204102 -7.084625244140625 20.24913024902344 -7.084625244140625 C 17.78219985961914 -7.084625244140625 15.59820938110352 -7.830894470214844 13.93326187133789 -9.242763519287109 C 12.94752883911133 -10.07866287231445 12.18614196777344 -11.11376571655273 11.67024993896484 -12.3193244934082 C 11.16646194458008 -13.4965934753418 10.91101837158203 -14.81378555297852 10.91101837158203 -16.23430252075195 C 10.91101837158203 -17.41221618652344 11.02584838867188 -18.44438552856445 11.13689041137695 -19.44255447387695 C 11.17525863647461 -19.78744506835938 11.21150207519531 -20.11321258544922 11.2430419921875 -20.44437408447266 L 11.25146865844727 -20.53288269042969 L 11.26382064819336 -20.62093353271484 L 14.07868957519531 -40.68307495117188 L 9.761310577392578 -40.68307495117188 C 7.375221252441406 -40.68307495117188 5.139850616455078 -41.57203674316406 3.466968536376953 -43.18620300292969 C 1.747150421142578 -44.84566497802734 0.7999992370605469 -47.0946044921875 0.7999992370605469 -49.51873397827148 C 0.7999992370605469 -51.92360305786133 1.729049682617188 -54.17707443237305 3.416019439697266 -55.8640251159668 C 5.102970123291016 -57.55096435546875 7.356441497802734 -58.48000335693359 9.761310577392578 -58.48000335693359 Z"/></g><g class="a" transform="translate(38.488 80.039)"><path class="e" d="M 35.41787338256836 -9.239420890808105 C 33.40521240234375 -9.239420890808105 31.65828132629395 -9.82335090637207 30.36593246459961 -10.92809104919434 C 29.3229923248291 -11.81963157653809 28.07975196838379 -13.49077129364014 28.07975196838379 -16.38909149169922 C 28.07975196838379 -17.94695281982422 28.23993110656738 -19.2846851348877 28.41320419311523 -20.49817657470703 L 29.23058319091797 -26.44685173034668 L 18.38241958618164 -26.44685173034668 L 16.92720222473145 -15.93698978424072 C 16.65415382385254 -13.81073760986328 15.74409294128418 -12.06089115142822 14.29499244689941 -10.87632083892822 C 12.98498153686523 -9.805451393127441 11.29859161376953 -9.239420890808105 9.418111801147461 -9.239420890808105 C 7.431262016296387 -9.239420890808105 5.694561958312988 -9.821571350097656 4.395761966705322 -10.92295169830322 C 3.339322090148926 -11.8188009262085 2.080002069473267 -13.49433135986328 2.080002069473267 -16.38909149169922 C 2.080002069473267 -17.74499130249023 2.250901937484741 -18.93206214904785 2.431832075119019 -20.1888313293457 L 2.47630500793457 -20.49856376647949 L 6.620562076568604 -50.45005035400391 L 6.621171951293945 -50.45442199707031 L 6.621791839599609 -50.45878219604492 C 6.928242206573486 -52.6038818359375 7.841052055358887 -54.36241149902344 9.261542320251465 -55.54424285888672 C 10.5634822845459 -56.6274528503418 12.24635219573975 -57.20000076293945 14.12821197509766 -57.20000076293945 C 16.1212215423584 -57.20000076293945 17.86036109924316 -56.61305236816406 19.15762138366699 -55.50261306762695 C 20.21084213256836 -54.6010627746582 21.46633148193359 -52.91242218017578 21.46633148193359 -49.98752975463867 C 21.46633148193359 -48.71499252319336 21.31229209899902 -47.61429214477539 21.14921188354492 -46.44895172119141 C 21.1235523223877 -46.26556015014648 21.09736251831055 -46.07847213745117 21.07118225097656 -45.8864631652832 L 20.30744934082031 -40.18097305297852 L 31.15962409973145 -40.18097305297852 L 32.55693054199219 -50.44570159912109 L 32.55782318115234 -50.45223999023438 L 32.55875015258789 -50.45877075195312 C 32.86520385742188 -52.6038818359375 33.77800369262695 -54.36240005493164 35.19849014282227 -55.54424285888672 C 36.50043106079102 -56.6274528503418 38.18330383300781 -57.20000076293945 40.06517028808594 -57.20000076293945 C 42.05818176269531 -57.20000076293945 43.79732131958008 -56.61305236816406 45.09457015991211 -55.50261306762695 C 46.14779281616211 -54.6010627746582 47.40328216552734 -52.91241073608398 47.40328216552734 -49.98752975463867 C 47.40328216552734 -48.59585952758789 47.28142166137695 -47.42998123168945 47.07093048095703 -45.88644027709961 L 42.92552185058594 -15.92656135559082 L 42.924560546875 -15.91967105865479 L 42.92356109619141 -15.91279125213623 C 42.61586380004883 -13.79741096496582 41.6905403137207 -12.05582141876221 40.24765014648438 -10.87632083892822 C 38.93764114379883 -9.805451393127441 37.26753234863281 -9.239420890808105 35.41787338256836 -9.239420890808105 Z"/><path class="f" d="M 14.12821197509766 -55.20000076293945 C 11.42775344848633 -55.20000076293945 9.104103088378906 -53.69277954101562 8.601692199707031 -50.17593383789062 L 4.456813812255859 -20.21994018554688 C 4.268402099609375 -18.901123046875 4.080001831054688 -17.70790100097656 4.080001831054688 -16.38909149169922 C 4.080001831054688 -12.74664306640625 6.592052459716797 -11.23942184448242 9.418113708496094 -11.23942184448242 C 12.11857223510742 -11.23942184448242 14.50502014160156 -12.74664306640625 14.94463348388672 -16.20067977905273 L 16.64026260375977 -28.44684219360352 L 31.5241813659668 -28.44684219360352 L 30.39376258850098 -20.21994018554688 C 30.20536231994629 -18.901123046875 30.07975196838379 -17.70790100097656 30.07975196838379 -16.38909149169922 C 30.07975196838379 -12.74664306640625 32.52899932861328 -11.23942184448242 35.41787338256836 -11.23942184448242 C 38.05552291870117 -11.23942184448242 40.44197082519531 -12.74664306640625 40.94439315795898 -16.20067977905273 L 45.08927154541016 -46.15668106079102 C 45.27768325805664 -47.53829956054688 45.40328216552734 -48.66872406005859 45.40328216552734 -49.98753356933594 C 45.40328216552734 -53.69277954101562 42.89123153686523 -55.20000076293945 40.06517028808594 -55.20000076293945 C 37.36471176147461 -55.20000076293945 35.04106140136719 -53.69277954101562 34.53865051269531 -50.17593383789062 L 32.90581130981445 -38.18096923828125 L 18.02189254760742 -38.18096923828125 L 19.08952140808105 -46.15668106079102 C 19.27792167663574 -47.53829956054688 19.46633148193359 -48.66872406005859 19.46633148193359 -49.98753356933594 C 19.46633148193359 -53.69277954101562 16.95427322387695 -55.20000076293945 14.12821197509766 -55.20000076293945 M 14.12821197509766 -59.20000076293945 C 16.60474014282227 -59.20000076293945 18.79361152648926 -58.44686126708984 20.45819282531738 -57.02199172973633 C 21.83049201965332 -55.84731292724609 23.46633148193359 -53.67336273193359 23.46633148193359 -49.98753356933594 C 23.46633148193359 -48.57572937011719 23.30292129516602 -47.40803146362305 23.12991142272949 -46.17176055908203 C 23.1048526763916 -45.99265289306641 23.07927513122559 -45.80995178222656 23.05370140075684 -45.62253570556641 L 22.59301376342773 -42.18096923828125 L 29.41342544555664 -42.18096923828125 L 30.57520294189453 -50.71546173095703 L 30.57699203491211 -50.72854995727539 L 30.5788516998291 -50.74162292480469 C 30.9565315246582 -53.38535308837891 32.11165237426758 -55.57771301269531 33.91934204101562 -57.08169174194336 C 35.58498382568359 -58.46750259399414 37.71018218994141 -59.20000076293945 40.06517028808594 -59.20000076293945 C 42.54170227050781 -59.20000076293945 44.73057174682617 -58.44684982299805 46.3951530456543 -57.02198028564453 C 47.76745223999023 -55.84731292724609 49.40328216552734 -53.67336273193359 49.40328216552734 -49.98753356933594 C 49.40328216552734 -48.48891067504883 49.26909255981445 -47.20386123657227 49.05259323120117 -45.6162109375 L 49.05206298828125 -45.61231994628906 L 49.05152130126953 -45.60844039916992 L 44.90664291381836 -15.65244293212891 L 44.90474319458008 -15.638671875 L 44.90273284912109 -15.62490081787109 C 44.52187347412109 -13.00653076171875 43.34987258911133 -10.82904052734375 41.51344299316406 -9.327850341796875 C 39.84207153320312 -7.961589813232422 37.73426055908203 -7.239421844482422 35.41787338256836 -7.239421844482422 C 32.92218017578125 -7.239421844482422 30.72587203979492 -7.989250183105469 29.06637191772461 -9.407840728759766 C 27.70389175415039 -10.57253265380859 26.07975196838379 -12.72915267944336 26.07975196838379 -16.38909149169922 C 26.07975196838379 -18.07309341430664 26.25770568847656 -19.55035018920898 26.43233299255371 -20.77421569824219 L 26.93697166442871 -24.44684219360352 L 20.12457466125488 -24.44684219360352 L 18.90952491760254 -15.6715202331543 C 18.56841278076172 -13.03336715698242 17.41077041625977 -10.84012222290039 15.560791015625 -9.327850341796875 C 13.88942337036133 -7.961589813232422 11.76532363891602 -7.239421844482422 9.418113708496094 -7.239421844482422 C 6.951183319091797 -7.239421844482422 4.767192840576172 -7.985691070556641 3.102241516113281 -9.397560119628906 C 2.116512298583984 -10.23345947265625 1.355133056640625 -11.26856231689453 0.8392333984375 -12.4741096496582 C 0.3354415893554688 -13.65138244628906 0.0800018310546875 -14.96857070922852 0.0800018310546875 -16.38909149169922 C 0.0800018310546875 -17.88822174072266 0.2692337036132812 -19.20265960693359 0.4522438049316406 -20.47381973266602 L 0.495849609375 -20.77748870849609 L 4.639442443847656 -50.72417068481445 L 4.640651702880859 -50.73290252685547 L 4.641891479492188 -50.74162292480469 C 5.019573211669922 -53.38535308837891 6.174690246582031 -55.57771301269531 7.982383728027344 -57.08169174194336 C 9.648021697998047 -58.46750259399414 11.77322387695312 -59.20000076293945 14.12821197509766 -59.20000076293945 Z"/></g><g class="b" transform="translate(72.81 98.559)"><path class="e" d="M 30.21343231201172 -9.239420890808105 C 27.51789283752441 -9.239420890808105 25.02522277832031 -10.65755176544189 23.70817184448242 -12.94039154052734 L 23.7030029296875 -12.94935131072998 L 23.69792175292969 -12.95837116241455 L 18.94922828674316 -21.38966178894043 L 10.64364528656006 -11.64861583709717 C 9.374701499938965 -10.11722850799561 7.444345951080322 -9.239420890808105 5.344111919403076 -9.239420890808105 C 3.476112127304077 -9.239420890808105 1.718122005462646 -9.956081390380859 0.3939820230007172 -11.25738143920898 C -0.9434479475021362 -12.57173156738281 -1.67999792098999 -14.32729148864746 -1.67999792098999 -16.20068168640137 C -1.67999792098999 -18.01433372497559 -0.9555395245552063 -19.79034423828125 0.3602255880832672 -21.20251846313477 L 11.5834436416626 -33.40406799316406 L 4.013482570648193 -45.86879348754883 C 3.329058647155762 -46.98389434814453 2.967302083969116 -48.29938507080078 2.967302083969116 -49.67352294921875 C 2.967302083969116 -51.66358184814453 3.740132093429565 -53.54465103149414 5.143432140350342 -54.97022247314453 C 6.558872222900391 -56.40812301635742 8.436712265014648 -57.20000076293945 10.43102169036865 -57.20000076293945 C 11.8278923034668 -57.20000076293945 13.20075225830078 -56.80049133300781 14.40120220184326 -56.04466247558594 C 15.51442241668701 -55.34374237060547 16.45761108398438 -54.35241317749023 17.1288013458252 -53.17784118652344 L 17.13301277160645 -53.17049026489258 L 17.13715171813965 -53.16308975219727 L 21.54701614379883 -45.29179000854492 L 28.97488594055176 -54.32563018798828 C 30.46280288696289 -56.17925262451172 32.48569107055664 -57.20000076293945 34.67233276367188 -57.20000076293945 C 38.61469268798828 -57.20000076293945 41.82204055786133 -53.96450042724609 41.82204055786133 -49.98752975463867 C 41.82204055786133 -48.17766189575195 41.12478637695312 -46.42989730834961 39.85829162597656 -45.06320953369141 L 28.98543930053711 -32.80978012084961 L 36.23456954956055 -20.91676330566406 C 37.15014266967773 -19.53083992004395 37.61435317993164 -18.09221839904785 37.61435317993164 -16.64029121398926 C 37.61435317993164 -12.55944156646729 34.2943115234375 -9.239420890808105 30.21343231201172 -9.239420890808105 Z"/><path class="f" d="M 10.43101119995117 -55.20000076293945 C 7.416553497314453 -55.20000076293945 4.967300415039062 -52.68797302246094 4.967300415039062 -49.67353057861328 C 4.967300415039062 -48.66872406005859 5.218502044677734 -47.72669982910156 5.720912933349609 -46.91029357910156 L 14.0734920501709 -33.15690231323242 L 1.827232360839844 -19.84313201904297 C 0.9480133056640625 -18.901123046875 0.3200035095214844 -17.64509963989258 0.3200035095214844 -16.20067977905273 C 0.3200035095214844 -13.43745040893555 2.580852508544922 -11.23942184448242 5.344112396240234 -11.23942184448242 C 6.851341247558594 -11.23942184448242 8.23297119140625 -11.867431640625 9.1121826171875 -12.93503952026367 L 19.28600120544434 -24.86720275878906 L 25.44053268432617 -13.93986129760742 C 26.38255310058594 -12.30702972412109 28.20379257202148 -11.23942184448242 30.21343231201172 -11.23942184448242 C 33.16510009765625 -11.23942184448242 35.61435317993164 -13.62585067749023 35.61435317993164 -16.64029312133789 C 35.61435317993164 -17.83351135253906 35.17474365234375 -18.901123046875 34.54673004150391 -19.84313201904297 L 26.50816345214844 -33.03131103515625 L 38.37761306762695 -46.40788269042969 C 39.25683212280273 -47.34989929199219 39.82204055786133 -48.60591125488281 39.82204055786133 -49.98753356933594 C 39.82204055786133 -52.87637329101562 37.49839019775391 -55.20000076293945 34.67233276367188 -55.20000076293945 C 32.97669219970703 -55.20000076293945 31.53226089477539 -54.32079315185547 30.52744293212891 -53.06478118896484 L 21.23285293579102 -41.7606201171875 L 15.3923225402832 -52.18556213378906 C 14.38750267028809 -53.9439811706543 12.56626129150391 -55.20000076293945 10.43101119995117 -55.20000076293945 M 10.43101119995117 -59.20000076293945 C 12.20548248291016 -59.20000076293945 13.94683265686035 -58.69415283203125 15.46682167053223 -57.73712921142578 C 16.85671234130859 -56.86201095581055 18.03189277648926 -55.62857055664062 18.86529159545898 -54.17013168334961 L 18.87369155883789 -54.15541076660156 L 18.88198280334473 -54.14063262939453 L 21.86119079589844 -48.82295227050781 L 27.42244338989258 -55.58659362792969 C 28.27939224243164 -56.65185546875 29.29520034790039 -57.50547790527344 30.44209289550781 -58.1240234375 C 31.76592254638672 -58.83798980712891 33.18918228149414 -59.20000076293945 34.67233276367188 -59.20000076293945 C 39.71750259399414 -59.20000076293945 43.82204055786133 -55.06730270385742 43.82204055786133 -49.98753356933594 C 43.82204055786133 -47.67888641357422 42.94118881225586 -45.45546722412109 41.34041213989258 -43.72017669677734 L 31.46270370483398 -32.58825302124023 L 37.92403411865234 -21.98770523071289 C 39.04571914672852 -20.27854156494141 39.61435317993164 -18.47989654541016 39.61435317993164 -16.64029312133789 C 39.61435317993164 -11.45663070678711 35.39710998535156 -7.239421844482422 30.21343231201172 -7.239421844482422 C 26.80536270141602 -7.239421844482422 23.64888191223145 -9.040950775146484 21.97579193115234 -11.94097137451172 L 21.96545219421387 -11.95888137817383 L 21.95531272888184 -11.97690200805664 L 18.61244773864746 -17.91213989257812 L 12.17471885681152 -10.36177825927734 C 10.52447700500488 -8.376907348632812 8.037288665771484 -7.239421844482422 5.344112396240234 -7.239421844482422 C 2.948451995849609 -7.239421844482422 0.6926002502441406 -8.159759521484375 -1.007877349853516 -9.830909729003906 C -2.73101806640625 -11.52433013916016 -3.679996490478516 -13.78649139404297 -3.679996490478516 -16.20067977905273 C -3.679996490478516 -18.51937866210938 -2.767063140869141 -20.77696228027344 -1.108894348144531 -22.55961990356445 L 9.093395233154297 -33.6512451171875 L 2.307125091552734 -44.82554626464844 C 1.430515289306641 -46.25496673583984 0.9673004150390625 -47.93096160888672 0.9673004150390625 -49.67353057861328 C 0.9673004150390625 -52.19187164306641 1.944232940673828 -54.57121276855469 3.718132019042969 -56.37326049804688 C 5.512523651123047 -58.19611358642578 7.896530151367188 -59.20000076293945 10.43101119995117 -59.20000076293945 Z"/></g><path class="c" d="M11.047,20.405a.644.644,0,0,1-.654-.661V14.3H6.948a.654.654,0,0,1-.57-.96l4.767-9.432a.615.615,0,0,1,.561-.361.654.654,0,0,1,.656.664V9.721h3.29a.641.641,0,0,1,.548.309.665.665,0,0,1,.035.638l-4.611,9.365A.63.63,0,0,1,11.047,20.405Z" transform="matrix(0.978, 0.208, -0.208, 0.978, 84.555, 46.721)"/><path class="c" d="M11.047,20.405a.644.644,0,0,1-.654-.661V14.3H6.948a.654.654,0,0,1-.57-.96l4.767-9.432a.615.615,0,0,1,.561-.361.654.654,0,0,1,.656.664V9.721h3.29a.641.641,0,0,1,.548.309.665.665,0,0,1,.035.638l-4.611,9.365A.63.63,0,0,1,11.047,20.405Z" transform="matrix(0.978, 0.208, -0.208, 0.978, 20.555, 78.721)"/><path class="c" d="M11.047,20.405a.644.644,0,0,1-.654-.661V14.3H6.948a.654.654,0,0,1-.57-.96l4.767-9.432a.615.615,0,0,1,.561-.361.654.654,0,0,1,.656.664V9.721h3.29a.641.641,0,0,1,.548.309.665.665,0,0,1,.035.638l-4.611,9.365A.63.63,0,0,1,11.047,20.405Z" transform="matrix(0.978, 0.208, -0.208, 0.978, 51.555, 66.721)"/><rect class="d" width="120" height="120"/></svg>