<?xml version="1.0" encoding="utf-8"?>
<!-- Generator: Adobe Illustrator 21.0.0, SVG Export Plug-In . SVG Version: 6.00 Build 0)  -->
<svg version="1.1" id="圖層_1" xmlns="http://www.w3.org/2000/svg" xmlns:xlink="http://www.w3.org/1999/xlink" x="0px" y="0px"
	 viewBox="0 0 36 36" style="enable-background:new 0 0 36 36;" xml:space="preserve">
<g transform="translate(-7753 -2025)">
	<rect x="7753" y="2025" style="fill:none;" width="36" height="36"/>
	<path style="fill:#FFFFFF;" d="M7768.6,2051.5c-0.3-0.1-0.6-0.4-0.5-0.8l0,0l1.1-5.3l-3.4-0.7c-0.4-0.1-0.6-0.4-0.5-0.8
		c0-0.1,0.1-0.2,0.1-0.3l6.6-8.2c0.1-0.2,0.4-0.3,0.6-0.2c0.4,0.1,0.6,0.4,0.5,0.8l0,0l-1.1,5.4l3.2,0.7c0.2,0,0.4,0.2,0.5,0.4
		c0.1,0.2,0,0.5-0.1,0.6l-6.5,8.2C7769.1,2051.4,7768.9,2051.5,7768.6,2051.5z"/>
</g>
</svg>
