<?xml version="1.0" encoding="utf-8"?>
<!-- Generator: Adobe Illustrator 21.0.0, SVG Export Plug-In . SVG Version: 6.00 Build 0)  -->
<svg version="1.1" id="圖層_1" xmlns="http://www.w3.org/2000/svg" xmlns:xlink="http://www.w3.org/1999/xlink" x="0px" y="0px"
	 viewBox="0 0 48 48" style="enable-background:new 0 0 48 48;" xml:space="preserve">
<style type="text/css">
	.st0{fill:none;}
</style>
<path class="st0" d="M0,0h48v48H0V0z"/>
<path d="M28,4H12C9.8,4,8,5.8,8,8c0,0,0,0,0,0l0,32c0,2.2,1.8,4,4,4c0,0,0,0,0,0h24c2.2,0,4-1.8,4-4V16L28,4z M32,36H16v-4h16V36z
	 M32,28H16v-4h16V28z M26,18V7l11,11H26z"/>
</svg>
