<?xml version="1.0" encoding="utf-8"?>
<!-- Generator: Adobe Illustrator 21.0.0, SVG Export Plug-In . SVG Version: 6.00 Build 0)  -->
<svg version="1.1" id="圖層_1" xmlns="http://www.w3.org/2000/svg" xmlns:xlink="http://www.w3.org/1999/xlink" x="0px" y="0px"
	 viewBox="0 0 24 24" style="enable-background:new 0 0 24 24;" xml:space="preserve">
<style type="text/css">
	.st0{fill:none;}
</style>
<path d="M15.5,14h-0.8l-0.3-0.3c2.3-2.7,2-6.8-0.7-9.2s-6.8-2-9.2,0.7s-2,6.8,0.7,9.2c2.4,2.1,6,2.1,8.5,0l0.3,0.3v0.8l5,5l1.5-1.5
	L15.5,14z M9.5,14C7,14,5,12,5,9.5S7,5,9.5,5S14,7,14,9.5C14,12,12,14,9.5,14C9.5,14,9.5,14,9.5,14z"/>
<path class="st0" d="M0,0h24v24H0V0z"/>
</svg>
