<?xml version="1.0" encoding="utf-8"?>
<!-- Generator: Adobe Illustrator 21.0.0, SVG Export Plug-In . SVG Version: 6.00 Build 0)  -->
<svg version="1.1" id="圖層_1" xmlns="http://www.w3.org/2000/svg" xmlns:xlink="http://www.w3.org/1999/xlink" x="0px" y="0px"
	 viewBox="0 0 213 36" style="enable-background:new 0 0 213 36;" xml:space="preserve">
<style type="text/css">
	.st0{fill:none;}
</style>
<g transform="translate(-91 -586)">
	<rect x="91" y="586" class="st0" width="213" height="36"/>
	<path d="M152.8,612h-5.3l-1.3-2.9c-0.3-0.8-0.8-1.6-1.3-2.3c-0.3-0.4-0.7-0.7-1.1-0.9c-0.4-0.1-0.9-0.2-1.4-0.2h-0.6v6.3H137v-16.2
		h8.3c1.2,0,2.3,0.2,3.3,0.8c0.8,0.5,1.4,1.2,1.9,2c0.4,0.7,0.6,1.5,0.6,2.2c0,0.7-0.1,1.4-0.5,2.1c-0.2,0.5-0.6,0.9-1,1.2
		c-0.4,0.3-0.8,0.5-1.2,0.7c0.5,0.3,0.9,0.6,1.3,1.1c0.6,0.8,1,1.6,1.4,2.5L152.8,612z M146.1,600.9c0.1-0.6-0.2-1.2-0.7-1.6
		c-0.7-0.4-1.6-0.5-2.4-0.4h-1v3.9h1.1c0.8,0.1,1.7-0.1,2.5-0.4C145.9,602.1,146.2,601.5,146.1,600.9z M172.8,612h-5l-1.3-3.3h-7.1
		l-1.3,3.3h-5l7.2-16.2h5.4L172.8,612z M165.4,605.9L163,600l-2.4,5.9H165.4z M189,600.9c0,0.6-0.1,1.2-0.3,1.8
		c-0.2,0.6-0.6,1.1-1,1.6c-0.5,0.5-1.2,1-1.9,1.2c-0.9,0.3-1.8,0.5-2.8,0.5h-3.2v6.1H175v-16.2h8.1c0.9,0,1.9,0.1,2.8,0.5
		c0.7,0.3,1.3,0.7,1.9,1.2c0.4,0.5,0.8,1,1,1.6C188.9,599.6,189,600.3,189,600.9z M184.1,600.9c0.1-0.6-0.2-1.2-0.7-1.6
		c-0.8-0.3-1.6-0.5-2.5-0.4h-1v3.9h1.1c0.6,0,1.3,0,1.9-0.2c0.4-0.1,0.7-0.3,0.9-0.6C184,601.7,184.1,601.3,184.1,600.9L184.1,600.9
		z M196.7,612h-4.9v-16.2h4.9V612z M217.5,604.2c0.1,1.4-0.2,2.8-0.9,4c-0.6,0.9-1.3,1.8-2.1,2.4c-1.4,1-3.1,1.5-4.9,1.4h-8.8v-16.2
		h6.8c0.9,0,1.7,0,2.6,0.2c0.7,0.1,1.3,0.2,2,0.4c0.5,0.2,1,0.4,1.5,0.6c0.4,0.2,0.7,0.5,1.1,0.8c0.6,0.5,1.1,1,1.5,1.6
		c0.4,0.7,0.8,1.4,1,2.1C217.4,602.4,217.5,603.3,217.5,604.2z M212.5,604c0.1-1.1-0.2-2.2-0.8-3.1c-0.4-0.7-1.1-1.2-1.8-1.5
		c-0.7-0.2-1.4-0.4-2.2-0.4h-2.1v9.6h2.1c1.2,0,2.3-0.3,3.3-0.9C212,607.1,212.5,605.9,212.5,604z M242.2,610.8
		c-0.7,0.3-1.3,0.6-2.1,0.8c-0.7,0.2-1.4,0.4-2.1,0.5c-0.7,0.1-1.5,0.1-2.2,0.1c-1.3,0-2.6-0.2-3.8-0.6c-1.1-0.4-2.1-1-2.9-1.7
		c-0.8-0.7-1.4-1.7-1.8-2.7c-0.4-1.1-0.6-2.2-0.6-3.4c0-1.3,0.2-2.5,0.7-3.7c0.5-1,1.2-1.9,2-2.6c0.9-0.7,1.9-1.2,3-1.5
		c1.1-0.3,2.3-0.5,3.5-0.5c2.1,0.1,4.3,0.5,6.3,1.2v4.3c-0.8-0.5-1.6-0.9-2.4-1.2c-0.9-0.4-1.8-0.5-2.8-0.5c-0.9,0-1.8,0.2-2.6,0.6
		c-0.8,0.4-1.5,0.9-2,1.6c-0.5,0.7-0.8,1.6-0.8,2.4c0,0.8,0.2,1.6,0.7,2.3c0.5,0.7,1.1,1.3,1.8,1.6c0.8,0.4,1.7,0.6,2.6,0.6
		c0.8,0,1.5-0.1,2.2-0.3c0.6-0.2,1.2-0.4,1.8-0.6c0.5-0.3,1-0.5,1.5-0.8L242.2,610.8z M262.6,612h-4.9v-6.3h-7.4v6.3h-4.9v-16.2h4.9
		v6h7.4v-6h4.9V612z M284.5,612h-5l-1.3-3.3h-7.1l-1.3,3.3h-5l7.2-16.2h5.4L284.5,612z M277.1,605.9l-2.4-5.9l-2.4,5.9H277.1z
		 M299.9,599.7h-6V612H289v-12.3h-6v-3.9h16.8V599.7z"/>
	<g transform="translate(-3 -162)">
		<g transform="translate(94 748)">
			<path class="st0" d="M0,0h36v36H0V0z"/>
			<path d="M33,33L33,33l-6-6H12c-1.7,0-3-1.3-3-3v-1.5h18c0.8,0,1.5-0.7,1.5-1.5V9H30c1.7,0,3,1.3,3,3V33z M3,25.5V6
				c0-1.7,1.3-3,3-3h16.5c1.7,0,3,1.3,3,3v10.5c0,1.7-1.3,3-3,3H9L3,25.5z M15,5.2L15,5.2l-3.8,7.3h2.6v4.7l3.7-7.3H15V5.2L15,5.2z"
				/>
		</g>
	</g>
</g>
</svg>
