<?xml version="1.0" encoding="utf-8"?>
<!-- Generator: Adobe Illustrator 21.0.0, SVG Export Plug-In . SVG Version: 6.00 Build 0)  -->
<svg version="1.1" id="圖層_1" xmlns="http://www.w3.org/2000/svg" xmlns:xlink="http://www.w3.org/1999/xlink" x="0px" y="0px"
	 viewBox="0 0 36 36" style="enable-background:new 0 0 36 36;" xml:space="preserve">
<style type="text/css">
	.st0{fill:none;}
</style>
<path class="st0" d="M0,0h36v36H0V0z"/>
<path d="M33,33L33,33l-6-6H12c-1.7,0-3-1.3-3-3v-1.5h18c0.8,0,1.5-0.7,1.5-1.5V9H30c1.7,0,3,1.3,3,3V33z M3,25.5V6c0-1.7,1.3-3,3-3
	h16.5c1.7,0,3,1.3,3,3v10.5c0,1.7-1.3,3-3,3H9L3,25.5z M15,5.2L15,5.2l-3.8,7.3h2.6v4.7l3.7-7.3H15V5.2L15,5.2z"/>
</svg>
