<?xml version="1.0" encoding="utf-8"?>
<!-- Generator: Adobe Illustrator 21.0.0, SVG Export Plug-In . SVG Version: 6.00 Build 0)  -->
<svg version="1.1" id="圖層_1" xmlns="http://www.w3.org/2000/svg" xmlns:xlink="http://www.w3.org/1999/xlink" x="0px" y="0px"
	 viewBox="0 0 120 120" style="enable-background:new 0 0 120 120;" xml:space="preserve">
<style type="text/css">
	.st0{fill:#FFFFFF;}
	.st1{fill:#65B1EF;}
	.st2{fill:#FF717F;}
	.st3{fill:none;}
</style>
<g transform="translate(5 77.513)">
	<path d="M30.3-3.4h-20C8-3.4,6.1-4.1,4.6-5.3c-1.2-1-2.6-2.8-2.6-6.1c0-1.8,0.2-3.3,0.4-4.7l4.7-33.7c0.3-2.4,1.3-4.4,2.9-5.7
		c1.4-1.2,3.3-1.8,5.4-1.8c2.2,0,4.1,0.6,5.6,1.9c1.2,1,2.5,2.9,2.5,6.1c0,1.4-0.2,2.7-0.4,4c0,0.2-0.1,0.4-0.1,0.6l-3.6,25.9h10.7
		c4.2,0,7.6,3.4,7.6,7.6S34.5-3.4,30.3-3.4z"/>
	<path class="st0" d="M30.3-5.4c3.1,0,5.6-2.5,5.6-5.6s-2.5-5.6-5.6-5.6h-13l3.9-28.1c0.2-1.6,0.4-2.9,0.4-4.4c0-4.3-2.9-6-6.1-6
		c-3.1,0-5.8,1.7-6.3,5.8L4.4-15.8c-0.2,1.5-0.4,2.9-0.4,4.4c0,4.2,2.9,5.9,6.1,5.9H30.3 M30.3-1.4h-20c-2.7,0-5.1-0.8-6.9-2.3
		C1.9-5,0.1-7.4,0.1-11.4c0-1.9,0.2-3.6,0.4-5L5.2-50c0.4-2.9,1.6-5.3,3.6-7c1.8-1.5,4.1-2.3,6.7-2.3c2.7,0,5.1,0.8,6.9,2.4
		c1.5,1.3,3.2,3.6,3.2,7.6c0,1.6-0.2,2.9-0.4,4.3c0,0.2-0.1,0.4-0.1,0.6l0,0l0,0l-3.3,23.6h8.4c5.3,0,9.6,4.3,9.6,9.6
		S35.6-1.4,30.3-1.4z"/>
</g>
<g transform="translate(29.355 92.042)">
	<path class="st1" d="M26.7-2.8c-3.3,0-6.4-0.6-9.3-1.7c-2.8-1.1-5.3-2.7-7.4-4.7c-2.1-2-3.8-4.5-5-7.3c-1.2-2.8-1.9-6-2.1-9.3
		c-0.5-9,2.5-17.6,8.2-23.5c2.4-2.5,5.1-4.4,8.2-5.8c3.2-1.4,6.7-2.1,10.3-2.1c13.5,0,23,9.3,23.7,23.1c0.2,4.5-0.3,8.9-1.7,12.9
		c-1.4,4.1-3.5,7.6-6.3,10.6c-2.4,2.5-5.1,4.4-8.2,5.8C33.9-3.5,30.4-2.8,26.7-2.8z M28.8-41.6c-2.6,0-4.5,1.4-5.6,2.6
		c-2.5,2.7-3.9,6.9-3.7,11.2l0,0l0,0c0.1,2.8,1,5.2,2.4,6.9c1.4,1.6,3.2,2.5,5.4,2.5c2.6,0,4.5-1.4,5.6-2.6
		c2.5-2.6,3.9-6.9,3.7-11.2l0,0l0,0C36.5-37.8,33.3-41.6,28.8-41.6z"/>
	<path class="st0" d="M29.6-55.3C14.3-55.3,4.2-41.4,5-25.9C5.6-13.2,14.2-4.8,26.7-4.8c15.6,0,25.5-13.6,24.7-29.3
		C50.7-46.8,42.1-55.3,29.6-55.3 M27.4-16.4c-5.6,0-9.5-4.7-9.8-11.3c-0.4-7.9,4.2-15.9,11.2-15.9c5.6,0,9.6,4.7,9.9,11.3
		C39.1-24.4,34.5-16.4,27.4-16.4 M29.6-59.3c3.6,0,6.9,0.6,10,1.8c3.1,1.2,5.8,2.9,8.1,5.2c2.3,2.2,4.1,4.9,5.4,8
		c1.3,3.1,2,6.4,2.2,10c0.3,4.8-0.3,9.4-1.8,13.7c-1.5,4.3-3.7,8.1-6.7,11.3c-2.5,2.7-5.5,4.8-8.9,6.2c-3.5,1.5-7.3,2.3-11.3,2.3
		c-3.6,0-6.9-0.6-10-1.8c-3.1-1.2-5.8-2.9-8.1-5.2c-2.3-2.2-4.1-4.9-5.4-8c-1.3-3-2-6.4-2.2-10c-0.5-9.5,2.7-18.7,8.7-25
		c2.5-2.7,5.5-4.8,8.8-6.2C22-58.5,25.7-59.3,29.6-59.3z M27.4-20.4c1.5,0,3-0.7,4.2-2c1-1.1,1.8-2.5,2.4-4.2
		c0.6-1.7,0.8-3.6,0.7-5.5l0,0l0,0c-0.1-2.3-0.8-4.4-2-5.7c-1-1.2-2.3-1.8-3.9-1.8c-1.5,0-2.9,0.7-4.1,1.9c-1,1.1-1.9,2.5-2.4,4.2
		c-0.6,1.7-0.8,3.6-0.7,5.5l0,0l0,0c0.1,2.3,0.8,4.4,2,5.7C24.6-21,25.8-20.4,27.4-20.4z"/>
</g>
<g transform="translate(74.098 102.442)">
	<path class="st2" d="M30.3-3.4h-20C8-3.4,6.1-4.1,4.6-5.3c-1.2-1-2.6-2.8-2.6-6.1c0-1.8,0.2-3.3,0.4-4.7l4.7-33.7
		c0.3-2.4,1.3-4.4,2.9-5.7c1.4-1.2,3.3-1.8,5.4-1.8c2.2,0,4.1,0.6,5.6,1.9c1.2,1,2.5,2.9,2.5,6.1c0,1.4-0.2,2.7-0.4,4
		c0,0.2-0.1,0.4-0.1,0.6l-3.6,25.9h10.7c4.2,0,7.6,3.4,7.6,7.6S34.5-3.4,30.3-3.4z"/>
	<path class="st0" d="M30.3-5.4c3.1,0,5.6-2.5,5.6-5.6s-2.5-5.6-5.6-5.6h-13l3.9-28.1c0.2-1.6,0.4-2.9,0.4-4.4c0-4.3-2.9-6-6.1-6
		c-3.1,0-5.8,1.7-6.3,5.8L4.4-15.8c-0.2,1.5-0.4,2.9-0.4,4.4c0,4.2,2.9,5.9,6.1,5.9H30.3 M30.3-1.4h-20c-2.7,0-5.1-0.8-6.9-2.3
		C1.9-5,0.1-7.4,0.1-11.4c0-1.9,0.2-3.6,0.4-5L5.2-50c0.4-2.9,1.6-5.3,3.6-7c1.8-1.5,4.1-2.3,6.7-2.3c2.7,0,5.1,0.8,6.9,2.4
		c1.5,1.3,3.2,3.6,3.2,7.6c0,1.6-0.2,2.9-0.4,4.3c0,0.2-0.1,0.4-0.1,0.6l0,0l0,0l-3.3,23.6h8.4c5.3,0,9.6,4.3,9.6,9.6
		S35.6-1.4,30.3-1.4z"/>
</g>
<path class="st0" d="M53.1,90c-0.3-0.1-0.6-0.4-0.5-0.8c0,0,0,0,0,0l1.1-5.3l-3.4-0.7c-0.4-0.1-0.6-0.4-0.5-0.8
	c0-0.1,0.1-0.2,0.1-0.3l6.6-8.2c0.1-0.2,0.4-0.3,0.6-0.2c0.4,0.1,0.6,0.4,0.5,0.8c0,0,0,0,0,0l-1.1,5.4l3.2,0.7
	c0.2,0,0.4,0.2,0.5,0.4c0.1,0.2,0,0.5-0.1,0.6l-6.5,8.2C53.6,89.9,53.4,90,53.1,90z"/>
<path class="st0" d="M58.1,51c-0.3-0.1-0.6-0.4-0.5-0.8c0,0,0,0,0,0l1.1-5.3l-3.4-0.7c-0.4-0.1-0.6-0.4-0.5-0.8
	c0-0.1,0.1-0.2,0.1-0.3l6.6-8.2c0.1-0.2,0.4-0.3,0.6-0.2c0.4,0.1,0.6,0.4,0.5,0.8c0,0,0,0,0,0l-1.1,5.4l3.2,0.7
	c0.2,0,0.4,0.2,0.5,0.4c0.1,0.2,0,0.5-0.1,0.6l-6.5,8.2C58.6,50.9,58.4,51,58.1,51z"/>
<rect y="0" class="st3" width="120" height="120"/>
</svg>
