<?xml version="1.0" encoding="utf-8"?>
<!-- Generator: Adobe Illustrator 21.0.0, SVG Export Plug-In . SVG Version: 6.00 Build 0)  -->
<svg version="1.1" id="圖層_1" xmlns="http://www.w3.org/2000/svg" xmlns:xlink="http://www.w3.org/1999/xlink" x="0px" y="0px"
	 viewBox="0 0 120 120" style="enable-background:new 0 0 120 120;" xml:space="preserve">
<style type="text/css">
	.st0{fill:#FFFFFF;}
	.st1{fill:#FF717F;}
	.st2{fill:#FFA700;}
	.st3{fill:none;}
</style>
<g transform="translate(3 87.405)">
	<path d="M20.2-9.1c-2,0-3.7-0.6-5-1.7c-1.1-0.9-2.3-2.6-2.3-5.5c0-1.1,0.1-2,0.2-3c0-0.3,0.1-0.7,0.1-1l0,0l0,0l3.1-22.3H9.8
		c-3.9,0-7-3-7-6.8c0-1.9,0.7-3.6,2-4.9c1.3-1.3,3.1-2,4.9-2h29.5c1.9,0,3.6,0.7,4.9,2c1.3,1.3,2,3.1,2,4.9c0,1.9-0.7,3.6-2,4.9
		c-1.3,1.3-3,2-4.9,2h-7.8l-3.7,26.9l0,0l0,0c-0.3,2.1-1.3,3.8-2.7,5C23.8-9.7,22.1-9.1,20.2-9.1z"/>
	<path class="st0" d="M9.8-54.5c-2.8,0-5,2.2-5,5c0,2.8,2.2,4.8,5,4.8h8.9l-3.5,24.6c-0.1,1.3-0.3,2.5-0.3,3.8
		c0,3.6,2.5,5.1,5.3,5.1c2.6,0,5-1.5,5.5-5l4-28.6h9.5c2.8,0,4.9-2.1,4.9-4.8c0-2.8-2.1-5-4.9-5H9.8 M9.8-58.5h29.5
		c2.4,0,4.7,0.9,6.3,2.6c1.7,1.7,2.6,3.9,2.6,6.3c0,5-3.9,8.8-8.9,8.8h-6.1l-3.5,25.2l0,0l0,0c-0.4,2.6-1.6,4.7-3.4,6.2
		c-1.7,1.4-3.8,2.1-6.1,2.1c-2.5,0-4.7-0.7-6.3-2.2c-1-0.8-1.7-1.9-2.3-3.1c-0.5-1.2-0.8-2.5-0.8-3.9c0-1.2,0.1-2.2,0.2-3.2
		c0-0.3,0.1-0.7,0.1-1l0-0.1l0-0.1l2.8-20.1H9.8c-2.4,0-4.6-0.9-6.3-2.5c-1.7-1.7-2.7-3.9-2.7-6.3c0-2.4,0.9-4.7,2.6-6.3
		C5.1-57.6,7.4-58.5,9.8-58.5z"/>
</g>
<g transform="translate(38.488 80.039)">
	<path class="st1" d="M35.4-9.2c-2,0-3.8-0.6-5.1-1.7c-1-0.9-2.3-2.6-2.3-5.5c0-1.6,0.2-2.9,0.3-4.1l0.8-5.9H18.4l-1.5,10.5
		c-0.3,2.1-1.2,3.9-2.6,5.1c-1.3,1.1-3,1.6-4.9,1.6c-2,0-3.7-0.6-5-1.7c-1.1-0.9-2.3-2.6-2.3-5.5c0-1.4,0.2-2.5,0.4-3.8l0-0.3
		l4.1-30l0,0l0,0c0.3-2.1,1.2-3.9,2.6-5.1c1.3-1.1,3-1.7,4.9-1.7c2,0,3.7,0.6,5,1.7c1.1,0.9,2.3,2.6,2.3,5.5c0,1.3-0.2,2.4-0.3,3.5
		c0,0.2-0.1,0.4-0.1,0.6l-0.8,5.7h10.9l1.4-10.3l0,0l0,0c0.3-2.1,1.2-3.9,2.6-5.1c1.3-1.1,3-1.7,4.9-1.7c2,0,3.7,0.6,5,1.7
		c1.1,0.9,2.3,2.6,2.3,5.5c0,1.4-0.1,2.6-0.3,4.1l-4.1,30l0,0l0,0c-0.3,2.1-1.2,3.9-2.7,5C38.9-9.8,37.3-9.2,35.4-9.2z"/>
	<path class="st0" d="M14.1-55.2c-2.7,0-5,1.5-5.5,5l-4.1,30c-0.2,1.3-0.4,2.5-0.4,3.8c0,3.6,2.5,5.1,5.3,5.1c2.7,0,5.1-1.5,5.5-5
		l1.7-12.2h14.9l-1.1,8.2c-0.2,1.3-0.3,2.5-0.3,3.8c0,3.6,2.4,5.1,5.3,5.1c2.6,0,5-1.5,5.5-5l4.1-30c0.2-1.4,0.3-2.5,0.3-3.8
		c0-3.7-2.5-5.2-5.3-5.2c-2.7,0-5,1.5-5.5,5l-1.6,12H18l1.1-8c0.2-1.4,0.4-2.5,0.4-3.8C19.5-53.7,17-55.2,14.1-55.2 M14.1-59.2
		c2.5,0,4.7,0.8,6.3,2.2c1.4,1.2,3,3.3,3,7c0,1.4-0.2,2.6-0.3,3.8c0,0.2-0.1,0.4-0.1,0.5l-0.5,3.4h6.8l1.2-8.5l0,0l0,0
		c0.4-2.6,1.5-4.8,3.3-6.3c1.7-1.4,3.8-2.1,6.1-2.1c2.5,0,4.7,0.8,6.3,2.2c1.4,1.2,3,3.3,3,7c0,1.5-0.1,2.8-0.4,4.4l0,0l0,0l-4.1,30
		l0,0l0,0c-0.4,2.6-1.6,4.8-3.4,6.3c-1.7,1.4-3.8,2.1-6.1,2.1c-2.5,0-4.7-0.7-6.4-2.2c-1.4-1.2-3-3.3-3-7c0-1.7,0.2-3.2,0.4-4.4
		l0.5-3.7h-6.8l-1.2,8.8c-0.3,2.6-1.5,4.8-3.3,6.3C13.9-8,11.8-7.2,9.4-7.2C7-7.2,4.8-8,3.1-9.4c-1-0.8-1.7-1.9-2.3-3.1
		c-0.5-1.2-0.8-2.5-0.8-3.9c0-1.5,0.2-2.8,0.4-4.1l0-0.3l4.1-29.9l0,0l0,0C5-53.4,6.2-55.6,8-57.1C9.6-58.5,11.8-59.2,14.1-59.2z"/>
</g>
<g transform="translate(72.81 98.559)">
	<path class="st2" d="M30.2-9.2c-2.7,0-5.2-1.4-6.5-3.7l0,0l0,0l-4.7-8.4l-8.3,9.7c-1.3,1.5-3.2,2.4-5.3,2.4c-1.9,0-3.6-0.7-5-2
		c-1.3-1.3-2.1-3.1-2.1-4.9c0-1.8,0.7-3.6,2-5l11.2-12.2L4-45.9c-0.7-1.1-1-2.4-1-3.8c0-2,0.8-3.9,2.2-5.3c1.4-1.4,3.3-2.2,5.3-2.2
		c1.4,0,2.8,0.4,4,1.2c1.1,0.7,2.1,1.7,2.7,2.9l0,0l0,0l4.4,7.9l7.4-9c1.5-1.9,3.5-2.9,5.7-2.9c3.9,0,7.1,3.2,7.1,7.2
		c0,1.8-0.7,3.6-2,4.9L29-32.8l7.2,11.9c0.9,1.4,1.4,2.8,1.4,4.3C37.6-12.6,34.3-9.2,30.2-9.2z"/>
	<path class="st0" d="M10.4-55.2c-3,0-5.5,2.5-5.5,5.5c0,1,0.3,1.9,0.8,2.8l8.4,13.8L1.8-19.8c-0.9,0.9-1.5,2.2-1.5,3.6
		c0,2.8,2.3,5,5,5c1.5,0,2.9-0.6,3.8-1.7l10.2-11.9l6.2,10.9c0.9,1.6,2.8,2.7,4.8,2.7c3,0,5.4-2.4,5.4-5.4c0-1.2-0.4-2.3-1.1-3.2
		l-8-13.2l11.9-13.4c0.9-0.9,1.4-2.2,1.4-3.6c0-2.9-2.3-5.2-5.1-5.2c-1.7,0-3.1,0.9-4.1,2.1l-9.3,11.3l-5.8-10.4
		C14.4-53.9,12.6-55.2,10.4-55.2 M10.4-59.2c1.8,0,3.5,0.5,5,1.5c1.4,0.9,2.6,2.1,3.4,3.6l0,0l0,0l3,5.3l5.6-6.8
		c0.9-1.1,1.9-1.9,3-2.5c1.3-0.7,2.7-1.1,4.2-1.1c5,0,9.1,4.1,9.1,9.2c0,2.3-0.9,4.5-2.5,6.3l-9.9,11.1L37.9-22
		c1.1,1.7,1.7,3.5,1.7,5.3c0,5.2-4.2,9.4-9.4,9.4c-3.4,0-6.6-1.8-8.2-4.7l0,0l0,0l-3.3-5.9l-6.4,7.6c-1.7,2-4.1,3.1-6.8,3.1
		C2.9-7.2,0.7-8.2-1-9.8c-1.7-1.7-2.7-4-2.7-6.4c0-2.3,0.9-4.6,2.6-6.4L9.1-33.7L2.3-44.8C1.4-46.3,1-47.9,1-49.7
		c0-2.5,1-4.9,2.8-6.7C5.5-58.2,7.9-59.2,10.4-59.2z"/>
</g>
<path class="st0" d="M91.1,69c-0.3-0.1-0.6-0.4-0.5-0.8c0,0,0,0,0,0l1.1-5.3l-3.4-0.7c-0.4-0.1-0.6-0.4-0.5-0.8
	c0-0.1,0.1-0.2,0.1-0.3l6.6-8.2c0.1-0.2,0.4-0.3,0.6-0.2c0.4,0.1,0.6,0.4,0.5,0.8c0,0,0,0,0,0l-1.1,5.4l3.2,0.7
	c0.2,0,0.4,0.2,0.5,0.4c0.1,0.2,0,0.5-0.1,0.6l-6.5,8.2C91.6,68.9,91.4,69,91.1,69z"/>
<path class="st0" d="M27.1,101c-0.3-0.1-0.6-0.4-0.5-0.8c0,0,0,0,0,0l1.1-5.3l-3.4-0.7c-0.4-0.1-0.6-0.4-0.5-0.8
	c0-0.1,0.1-0.2,0.1-0.3l6.6-8.2c0.1-0.2,0.4-0.3,0.6-0.2c0.4,0.1,0.6,0.4,0.5,0.8c0,0,0,0,0,0l-1.1,5.4l3.2,0.7
	c0.2,0,0.4,0.2,0.5,0.4c0.1,0.2,0,0.5-0.1,0.6l-6.5,8.2C27.6,100.9,27.4,101,27.1,101z"/>
<path class="st0" d="M58.1,89c-0.3-0.1-0.6-0.4-0.5-0.8c0,0,0,0,0,0l1.1-5.3l-3.4-0.7c-0.4-0.1-0.6-0.4-0.5-0.8
	c0-0.1,0.1-0.2,0.1-0.3l6.6-8.2c0.1-0.2,0.4-0.3,0.6-0.2c0.4,0.1,0.6,0.4,0.5,0.8c0,0,0,0,0,0l-1.1,5.4l3.2,0.7
	c0.2,0,0.4,0.2,0.5,0.4c0.1,0.2,0,0.5-0.1,0.6l-6.5,8.2C58.6,88.9,58.4,89,58.1,89z"/>
<rect y="0" class="st3" width="120" height="120"/>
</svg>
