<?xml version="1.0" encoding="utf-8"?>
<!-- Generator: Adobe Illustrator 21.0.0, SVG Export Plug-In . SVG Version: 6.00 Build 0)  -->
<svg version="1.1" id="圖層_1" xmlns="http://www.w3.org/2000/svg" xmlns:xlink="http://www.w3.org/1999/xlink" x="0px" y="0px"
	 viewBox="0 0 120 120" style="enable-background:new 0 0 120 120;" xml:space="preserve">
<style type="text/css">
	.st0{fill:#FFFFFF;}
	.st1{fill:#FFA700;}
	.st2{fill:#FF717F;}
	.st3{fill:none;}
</style>
<g transform="translate(2 89.162)">
	<path d="M42.1-10.1c-2.5,0-4.6-0.7-6.1-2.1c-1.5-1.3-2.4-3.2-2.9-5.8l0,0l0,0l-1.6-9.4l-4.3,10.7c-0.8,2.1-1.9,3.7-3.3,4.8
		c-1.5,1.2-3.4,1.8-5.7,1.8c-2.6,0-4.7-0.7-6.3-2c-1.6-1.3-2.6-3.3-3-5.8l0,0l0,0L4.5-46.6l0,0l0,0c0-0.1,0-0.3-0.1-0.4
		c-0.1-1-0.3-2.1-0.3-2.9c0-2,0.6-3.8,1.8-5c1.3-1.3,3-2,5.1-2c4.1,0,6.8,2.4,7.2,6.6l1.8,16.3L27-51.8c0.6-1.6,1.3-2.7,2.3-3.6
		c1.3-1.1,2.9-1.7,4.8-1.7c2.2,0,3.9,0.6,5.2,1.9c1.1,1.1,1.7,2.6,2,4.6l2.5,16.3l6.1-17.5l0,0l0,0c1.3-3.5,3.8-5.4,7-5.4
		c2.2,0,4,0.6,5.2,1.9c1.1,1.2,1.8,2.8,1.8,4.7c0,1.5-0.3,3.1-0.9,4.6L51.1-16.4C49.5-12.1,46.5-10.1,42.1-10.1z"/>
	<path class="st0" d="M11.1-55.1c-3.2,0-5,2-5,5c0,0.9,0.2,2.2,0.3,3.1l4.4,28.7c0.7,4.1,3,6.2,7.3,6.2c3.6,0,5.8-1.9,7.1-5.4
		l6.9-17h0.1l2.8,16.1c0.7,4.1,2.9,6.2,7,6.2c3.3,0,5.7-1.2,7.2-5L61-46.6c0.6-1.4,0.8-2.7,0.8-3.9c0-2.7-1.5-4.6-5-4.6
		c-2.4,0-4.1,1.4-5.1,4.1l-8.7,24.9h-0.1l-3.6-24.1c-0.4-3-1.8-4.9-5.2-4.9c-3.1,0-4.4,1.8-5.2,4l-9.7,24.9h-0.1l-2.7-24.1
		C16.1-53.3,14.5-55.1,11.1-55.1 M11.1-59.1c3.3,0,5.4,1.3,6.5,2.4c1.5,1.5,2.4,3.5,2.7,5.9l0.9,8.2l3.9-9.9
		c0.7-1.9,1.6-3.3,2.8-4.4c1.6-1.5,3.7-2.2,6.1-2.2c2.8,0,5,0.9,6.6,2.5c1.4,1.4,2.2,3.3,2.6,5.7l1.3,8.3l3.4-9.8l0,0l0,0
		c0.7-2,1.8-3.6,3.3-4.7c1.6-1.3,3.5-1.9,5.6-1.9c3.5,0,5.5,1.3,6.6,2.5c1.5,1.5,2.3,3.7,2.3,6.1c0,1.8-0.4,3.6-1.1,5.4L53-15.6
		c-1,2.6-2.5,4.6-4.5,5.8c-1.8,1.2-3.9,1.7-6.4,1.7c-3,0-5.5-0.9-7.4-2.6c-1.8-1.6-2.9-3.9-3.5-6.9l0,0l0,0l-0.4-2.5l-1.7,4.2
		c-1,2.5-2.3,4.3-4,5.6c-1.9,1.5-4.2,2.2-6.9,2.2c-3.1,0-5.7-0.9-7.6-2.5c-1.9-1.6-3.1-4-3.6-7l0,0l0,0L2.5-46.3l0-0.1l0-0.1
		c0-0.1,0-0.3-0.1-0.4c-0.1-1-0.3-2.2-0.3-3.2c0-2.6,0.8-4.8,2.4-6.4C6.2-58.2,8.5-59.1,11.1-59.1z"/>
</g>
<g transform="translate(38.684 109.775)">
	<path class="st1" d="M19.9-10c-2,0-3.7-0.6-4.9-1.7c-1-0.9-2.3-2.5-2.3-5.4c0-1,0.1-2,0.2-2.9c0-0.3,0.1-0.7,0.1-1l0,0l0,0
		l3.1-21.8H9.7c-3.8,0-6.9-3-6.9-6.7c0-1.8,0.7-3.6,2-4.9c1.3-1.3,3-2,4.9-2h28.9c1.8,0,3.6,0.7,4.8,2c1.3,1.3,2,3,2,4.8
		c0,1.8-0.7,3.6-2,4.8c-1.3,1.2-3,1.9-4.8,1.9H31l-3.6,26.3l0,0l0,0c-0.3,2.1-1.3,3.8-2.6,4.9C23.4-10.5,21.7-10,19.9-10z"/>
	<path class="st0" d="M9.7-54.5c-2.7,0-4.9,2.2-4.9,4.9c0,2.7,2.2,4.7,4.9,4.7h8.7L15-20.8c-0.1,1.3-0.3,2.5-0.3,3.8
		c0,3.6,2.5,5,5.2,5c2.6,0,4.9-1.5,5.4-4.9l3.9-28h9.3c2.7,0,4.8-2,4.8-4.7c0-2.7-2.1-4.9-4.8-4.9H9.7 M9.7-58.5h28.9
		c2.4,0,4.6,0.9,6.3,2.6c1.6,1.7,2.5,3.9,2.5,6.2c0,4.9-3.9,8.7-8.8,8.7h-5.9l-3.4,24.6l0,0l0,0c-0.4,2.6-1.6,4.7-3.3,6.1
		c-1.6,1.4-3.7,2.1-6,2.1c-2.4,0-4.6-0.7-6.2-2.1c-1-0.8-1.7-1.9-2.2-3c-0.5-1.2-0.8-2.5-0.8-3.9c0-1.2,0.1-2.2,0.2-3.2
		c0-0.3,0.1-0.7,0.1-1l0-0.1l0-0.1l2.7-19.6H9.7c-2.4,0-4.6-0.9-6.2-2.5c-1.7-1.6-2.6-3.9-2.6-6.3c0-2.4,0.9-4.6,2.6-6.3
		C5.1-57.6,7.3-58.5,9.7-58.5z"/>
</g>
<g transform="translate(74.762 97.708)">
	<path class="st2" d="M9.3-10c-2,0-3.7-0.6-4.9-1.7c-1-0.9-2.3-2.5-2.3-5.4c0-1.3,0.2-2.5,0.3-3.7l0-0.3l4.1-28.7
		c0.3-2.1,1.1-3.8,2.5-5c1.3-1.1,3-1.7,4.9-1.7h18.8c3.7,0,6.8,3,6.8,6.8c0,3.7-3,6.8-6.8,6.8H20.4l-0.3,2.4h7.4
		c3.7,0,6.8,3,6.8,6.8c0,3.7-3,6.8-6.8,6.8h-9.3l-1.5,10.3l0,0l0,0c-0.3,2.1-1.2,3.8-2.6,5C12.8-10.5,11.2-10,9.3-10z"/>
	<path class="st0" d="M13.9-54.5c-2.7,0-5,1.7-5.4,5L4.4-20.8c-0.2,1.3-0.4,2.5-0.4,3.8c0,3.6,2.5,5,5.2,5c2.6,0,4.9-1.5,5.4-4.9
		l1.7-12.1h11.1c2.6,0,4.8-2.2,4.8-4.8c0-2.6-2.2-4.8-4.8-4.8h-9.7l0.9-6.4h14.1c2.6,0,4.8-2.2,4.8-4.8c0-2.6-2.2-4.8-4.8-4.8H13.9
		 M13.9-58.5h18.8c4.9,0,8.8,3.9,8.8,8.8c0,4.9-3.9,8.8-8.8,8.8h-0.2c2.3,1.6,3.7,4.2,3.7,7.2c0,4.9-3.9,8.8-8.8,8.8h-7.6l-1.2,8.6
		l0,0l0,0c-0.7,5-4.4,8.3-9.4,8.3c-2.4,0-4.6-0.7-6.2-2.1c-1-0.8-1.7-1.9-2.2-3c-0.5-1.2-0.8-2.5-0.8-3.9c0-1.5,0.2-2.8,0.4-4l0-0.3
		L4.5-50c0.3-2.6,1.4-4.7,3.2-6.2C9.4-57.7,11.6-58.5,13.9-58.5z"/>
</g>
<path class="st0" d="M76.1,39c-0.3-0.1-0.6-0.4-0.5-0.8c0,0,0,0,0,0l1.1-5.3l-3.4-0.7c-0.4-0.1-0.6-0.4-0.5-0.8
	c0-0.1,0.1-0.2,0.1-0.3l6.6-8.2c0.1-0.2,0.4-0.3,0.6-0.2c0.4,0.1,0.6,0.4,0.5,0.8c0,0,0,0,0,0l-1.1,5.4l3.2,0.7
	c0.2,0,0.4,0.2,0.5,0.4c0.1,0.2,0,0.5-0.1,0.6l-6.5,8.2C76.6,38.9,76.4,39,76.1,39z"/>
<path class="st0" d="M25.1,103c-0.3-0.1-0.6-0.4-0.5-0.8c0,0,0,0,0,0l1.1-5.3l-3.4-0.7c-0.4-0.1-0.6-0.4-0.5-0.8
	c0-0.1,0.1-0.2,0.1-0.3l6.6-8.2c0.1-0.2,0.4-0.3,0.6-0.2c0.4,0.1,0.6,0.4,0.5,0.8c0,0,0,0,0,0l-1.1,5.4l3.2,0.7
	c0.2,0,0.4,0.2,0.5,0.4c0.1,0.2,0,0.5-0.1,0.6l-6.5,8.2C25.6,102.9,25.4,103,25.1,103z"/>
<path class="st0" d="M105.1,94c-0.3-0.1-0.6-0.4-0.5-0.8c0,0,0,0,0,0l1.1-5.3l-3.4-0.7c-0.4-0.1-0.6-0.4-0.5-0.8
	c0-0.1,0.1-0.2,0.1-0.3l6.6-8.2c0.1-0.2,0.4-0.3,0.6-0.2c0.4,0.1,0.6,0.4,0.5,0.8c0,0,0,0,0,0l-1.1,5.4l3.2,0.7
	c0.2,0,0.4,0.2,0.5,0.4c0.1,0.2,0,0.5-0.1,0.6l-6.5,8.2C105.6,93.9,105.4,94,105.1,94z"/>
<rect y="0" class="st3" width="120" height="120"/>
</svg>
