<?xml version="1.0" encoding="utf-8"?>
<!-- Generator: Adobe Illustrator 21.0.0, SVG Export Plug-In . SVG Version: 6.00 Build 0)  -->
<svg version="1.1" id="圖層_1" xmlns="http://www.w3.org/2000/svg" xmlns:xlink="http://www.w3.org/1999/xlink" x="0px" y="0px"
	 viewBox="0 0 120 120" style="enable-background:new 0 0 120 120;" xml:space="preserve">
<style type="text/css">
	.st0{fill:#FFFFFF;}
	.st1{fill:#65B1EF;}
	.st2{fill:none;}
</style>
<g transform="translate(9 87)">
	<path d="M29,2.7c-3.7,0-7.1-0.6-10.2-1.8C15.7-0.3,13-2,10.7-4.3c-2.3-2.2-4.1-5-5.4-8C3.9-15.5,3.2-18.9,3-22.6
		c-0.5-9.9,2.8-19.4,9-26c2.6-2.7,5.6-4.9,9-6.4c3.5-1.6,7.3-2.3,11.3-2.3c3.7,0,7.1,0.6,10.2,1.8c3.1,1.2,5.8,3,8.1,5.2
		c2.3,2.3,4.1,5,5.4,8.1c1.3,3.1,2.1,6.6,2.3,10.3c0.3,5-0.4,9.8-1.9,14.2C55-13.1,52.7-9.2,49.6-6c-2.6,2.7-5.6,4.9-9,6.4
		C37,1.9,33.1,2.7,29,2.7z M31.4-40.3c-3,0-5.1,1.6-6.3,2.9c-2.8,3-4.4,7.8-4.2,12.6l0,0l0,0c0.1,3.1,1.1,5.9,2.8,7.8
		c1.6,1.8,3.7,2.8,6.1,2.8c3,0,5.1-1.6,6.4-2.9c2.8-3,4.4-7.8,4.1-12.5l0,0l0,0c-0.1-3.1-1.1-5.9-2.8-7.8
		C36-39.3,33.9-40.3,31.4-40.3z"/>
	<path class="st0" d="M32.3-55.3c-17,0-28.2,15.4-27.4,32.6C5.7-8.6,15.2,0.7,29,0.7c17.4,0,28.3-15.1,27.4-32.5
		C55.7-45.8,46.2-55.3,32.3-55.3 M29.8-12.2c-6.2,0-10.6-5.2-10.9-12.6c-0.5-8.7,4.6-17.6,12.5-17.6c6.2,0,10.6,5.2,11,12.6
		C42.9-21,37.8-12.2,29.8-12.2 M32.3-59.3c3.9,0,7.6,0.7,10.9,2c3.3,1.3,6.3,3.2,8.8,5.7c2.5,2.4,4.5,5.4,5.9,8.7
		c1.4,3.3,2.2,7,2.4,11c0.3,5.2-0.4,10.3-2,15c-1.6,4.8-4.1,8.9-7.3,12.4c-2.8,2.9-6,5.2-9.7,6.8c-3.8,1.7-8,2.5-12.3,2.5
		c-3.9,0-7.6-0.7-10.9-1.9c-3.3-1.3-6.3-3.2-8.8-5.6c-2.5-2.4-4.5-5.4-5.9-8.7c-1.4-3.3-2.2-7-2.4-11C0.4-33,3.9-43,10.5-49.9
		c2.8-2.9,6-5.2,9.6-6.8C24-58.4,28-59.3,32.3-59.3z M29.8-16.2c1.8,0,3.5-0.8,5-2.3c1.2-1.2,2.1-2.9,2.8-4.8c0.7-2,0.9-4.1,0.8-6.2
		l0,0l0,0c-0.1-2.7-0.9-5-2.3-6.6c-1.2-1.4-2.8-2.1-4.7-2.1c-1.8,0-3.4,0.8-4.9,2.3c-1.2,1.2-2.1,2.9-2.8,4.8c-0.7,2-1,4.2-0.8,6.3
		l0,0l0,0c0.1,2.7,0.9,5,2.3,6.6C26.5-16.9,28-16.2,29.8-16.2z"/>
</g>
<g transform="translate(59 87)">
	<path class="st1" d="M40.2,2.9c-3.4,0-6.2-1.6-8-4.8l-8.5-14.7l-2.5,2.4l-1.2,8.7l0,0l0,0c-0.4,2.6-1.5,4.7-3.2,6.1
		c-1.6,1.4-3.6,2.1-5.8,2.1c-2.7,0-5.1-1.1-6.8-3C2.5-2.3,1.8-5,2.3-8L7.9-49c0.3-2.5,1.4-4.6,3.2-6.1c1.6-1.4,3.7-2.1,5.9-2.1
		c2.6,0,5,1.1,6.7,3c1.8,2,2.5,4.8,2.1,7.9l0,0l0,0L25-40.9l12.7-13.7l0,0l0,0c1.5-1.6,3.8-2.5,6.2-2.5c2.3,0,4.5,0.9,6.1,2.5
		c1.6,1.6,2.5,3.8,2.5,6.1c0,2.5-1,4.7-3,6.7l0,0l0,0l-12.4,12L47.8-11c0.6,1.1,1.4,2.8,1.4,4.8c0,2.4-0.9,4.7-2.6,6.4
		C44.9,1.9,42.6,2.9,40.2,2.9z"/>
	<path class="st0" d="M17-55.2c-3.4,0-6.5,2.2-7,6.5l-5.7,41C3.4-2.5,7,0.8,11,0.8c3.4,0,6.4-2.1,7-6.5l1.3-9.4l4.8-4.7L34-2.9
		c1.4,2.5,3.5,3.8,6.2,3.8c3.8,0,7-3.2,7-7c0-1.4-0.5-2.7-1.1-3.8L34.6-30.1l13.5-13.1c1.4-1.4,2.4-3.1,2.4-5.3c0-3.7-3-6.6-6.6-6.6
		c-1.6,0-3.4,0.6-4.7,1.9l-17,18.4l1.7-11.8C24.5-51.9,21-55.2,17-55.2 M17-59.2c3.2,0,6.2,1.3,8.2,3.6c2,2.3,2.9,5.3,2.7,8.7l8.4-9
		l0,0l0,0c1.9-2,4.7-3.2,7.6-3.2c2.8,0,5.5,1.1,7.5,3.1c2,2,3.1,4.7,3.1,7.5c0,3-1.2,5.7-3.6,8.1l0,0l0,0l-11.3,11l10,17.4l0,0l0,0
		c0.8,1.3,1.6,3.4,1.6,5.8c0,2.9-1.1,5.7-3.2,7.8c-2.1,2.1-4.8,3.3-7.8,3.3c-2.1,0-4-0.5-5.7-1.5c-1.6-1-3-2.4-4-4.2l-7.2-12.4
		l-0.2,0.2l-1.1,8l0,0l0,0c-0.4,3-1.8,5.6-3.9,7.4c-2,1.7-4.4,2.5-7.1,2.5c-3.2,0-6.3-1.4-8.3-3.7c-2.1-2.5-3-5.8-2.5-9.4L6-49.3
		c0.4-3,1.7-5.6,3.8-7.4C11.7-58.3,14.3-59.2,17-59.2z"/>
</g>
<path class="st0" d="M72.1,68c-0.3-0.1-0.6-0.4-0.5-0.8c0,0,0,0,0,0l1.1-5.3l-3.4-0.7c-0.4-0.1-0.6-0.4-0.5-0.8
	c0-0.1,0.1-0.2,0.1-0.3l6.6-8.2c0.1-0.2,0.4-0.3,0.6-0.2c0.4,0.1,0.6,0.4,0.5,0.8c0,0,0,0,0,0l-1.1,5.4l3.2,0.7
	c0.2,0,0.4,0.2,0.5,0.4c0.1,0.2,0,0.5-0.1,0.6l-6.5,8.2C72.6,67.9,72.4,68,72.1,68z"/>
<rect y="0" class="st2" width="120" height="120"/>
</svg>
