<?xml version="1.0" encoding="utf-8"?>
<!-- Generator: Adobe Illustrator 21.0.0, SVG Export Plug-In . SVG Version: 6.00 Build 0)  -->
<svg version="1.1" id="圖層_1" xmlns="http://www.w3.org/2000/svg" xmlns:xlink="http://www.w3.org/1999/xlink" x="0px" y="0px"
	 viewBox="0 0 120 120" style="enable-background:new 0 0 120 120;" xml:space="preserve">
<style type="text/css">
	.st0{fill:#FFFFFF;}
	.st1{fill:#FF717F;}
	.st2{fill:none;}
</style>
<g transform="translate(7 86.12)">
	<path d="M43.6,2.8c-3.1,0-5.6-1.4-7.4-4.1l0,0l0,0L21.9-24.1L19.3-5l0,0l0,0c-0.4,2.4-1.4,4.5-3,5.8c-1.5,1.3-3.4,2-5.6,2
		c-2.5,0-4.9-1-6.4-2.9C2.5-2,1.8-4.6,2.3-7.5l5.8-41.8c0.3-2.4,1.4-4.4,3-5.8c1.5-1.3,3.5-2,5.6-2c3,0,5.6,1.3,7,3.7l14.7,23.3
		l2.7-19.1c0.3-2.4,1.4-4.4,3.1-5.8c1.5-1.3,3.5-2,5.6-2c2.5,0,4.9,1,6.4,2.9c1.7,1.9,2.3,4.6,1.9,7.4L52.2-5
		c-0.3,2.4-1.4,4.5-3,5.9C47.7,2.1,45.7,2.8,43.6,2.8z"/>
	<path class="st0" d="M16.7-55.1c-3.2,0-6.1,2-6.6,6.1L4.2-7.2c-0.7,5,2.6,8,6.4,8c3.2,0,6-1.9,6.6-6.1l3.4-24.5L37.9-2.4
		c1.1,1.8,2.9,3.2,5.7,3.2c3.2,0,6.1-1.9,6.6-6.1l5.8-41.8c0.7-5-2.6-8-6.4-8c-3.1,0-6.1,2-6.6,6.1l-3.4,24.6L22-52.4
		C20.9-54.2,18.9-55.1,16.7-55.1 M16.7-59.1c1.7,0,3.4,0.4,4.8,1.1c1.6,0.8,2.9,2,3.9,3.5l11.8,18.7l1.9-13.7
		c0.4-2.9,1.7-5.4,3.7-7.1c1.9-1.6,4.3-2.4,6.9-2.4c3.1,0,6,1.3,8,3.6c2,2.4,2.9,5.6,2.4,9L54.2-4.7c-0.4,2.9-1.7,5.4-3.7,7.1
		c-1.9,1.6-4.3,2.4-6.9,2.4c-2.1,0-3.9-0.5-5.6-1.5c-1.4-0.8-2.5-2-3.5-3.5l0,0l0,0L23.2-18.4L21.2-4.7l0,0l0,0
		c-0.4,2.9-1.7,5.4-3.7,7c-1.9,1.6-4.2,2.4-6.9,2.4c-3.1,0-6-1.3-8-3.6c-2-2.4-2.9-5.6-2.4-9l5.8-41.8c0.4-2.9,1.7-5.4,3.7-7.1
		C11.7-58.2,14.1-59.1,16.7-59.1z"/>
</g>
<g transform="translate(55 86.28)">
	<path class="st1" d="M29,2.7c-3.7,0-7.1-0.6-10.2-1.8C15.7-0.3,13-2,10.7-4.3c-2.3-2.2-4.1-5-5.4-8C3.9-15.5,3.2-18.9,3-22.6
		c-0.5-9.9,2.8-19.4,9-26c2.6-2.7,5.6-4.9,9-6.4c3.5-1.6,7.3-2.3,11.3-2.3c3.7,0,7.1,0.6,10.2,1.8c3.1,1.2,5.8,3,8.1,5.2
		c2.3,2.3,4.1,5,5.4,8.1c1.3,3.1,2.1,6.6,2.3,10.3c0.3,5-0.4,9.8-1.9,14.2C55-13.1,52.7-9.2,49.6-6c-2.6,2.7-5.6,4.9-9,6.4
		C37,1.9,33.1,2.7,29,2.7z M31.4-40.3c-3,0-5.1,1.6-6.3,2.9c-2.8,3-4.4,7.8-4.2,12.6l0,0l0,0c0.1,3.1,1.1,5.9,2.8,7.8
		c1.6,1.8,3.7,2.8,6.1,2.8c3,0,5.1-1.6,6.4-2.9c2.8-3,4.4-7.8,4.1-12.5l0,0l0,0c-0.1-3.1-1.1-5.9-2.8-7.8
		C36-39.3,33.9-40.3,31.4-40.3z"/>
	<path class="st0" d="M32.3-55.3c-17,0-28.2,15.4-27.4,32.6C5.7-8.6,15.2,0.7,29,0.7c17.4,0,28.3-15.1,27.4-32.5
		C55.7-45.8,46.2-55.3,32.3-55.3 M29.8-12.2c-6.2,0-10.6-5.2-10.9-12.6c-0.5-8.7,4.6-17.6,12.5-17.6c6.2,0,10.6,5.2,11,12.6
		C42.9-21,37.8-12.2,29.8-12.2 M32.3-59.3c3.9,0,7.6,0.7,10.9,2c3.3,1.3,6.3,3.2,8.8,5.7c2.5,2.4,4.5,5.4,5.9,8.7
		c1.4,3.3,2.2,7,2.4,11c0.3,5.2-0.4,10.3-2,15c-1.6,4.8-4.1,8.9-7.3,12.4c-2.8,2.9-6,5.2-9.7,6.8c-3.8,1.7-8,2.5-12.3,2.5
		c-3.9,0-7.6-0.7-10.9-1.9c-3.3-1.3-6.3-3.2-8.8-5.6c-2.5-2.4-4.5-5.4-5.9-8.7c-1.4-3.3-2.2-7-2.4-11C0.4-33,3.9-43,10.5-49.9
		c2.8-2.9,6-5.2,9.6-6.8C24-58.4,28-59.3,32.3-59.3z M29.8-16.2c1.8,0,3.5-0.8,5-2.3c1.2-1.2,2.1-2.9,2.8-4.8c0.7-2,0.9-4.1,0.8-6.2
		l0,0l0,0c-0.1-2.7-0.9-5-2.3-6.6c-1.2-1.4-2.8-2.1-4.7-2.1c-1.8,0-3.4,0.8-4.9,2.3c-1.2,1.2-2.1,2.9-2.8,4.8c-0.7,2-1,4.2-0.8,6.3
		l0,0l0,0c0.1,2.7,0.9,5,2.3,6.6C26.5-16.9,28-16.2,29.8-16.2z"/>
</g>
<path class="st0" d="M18.1,68c-0.3-0.1-0.6-0.4-0.5-0.8c0,0,0,0,0,0l1.1-5.3l-3.4-0.7c-0.4-0.1-0.6-0.4-0.5-0.8
	c0-0.1,0.1-0.2,0.1-0.3l6.6-8.2c0.1-0.2,0.4-0.3,0.6-0.2c0.4,0.1,0.6,0.4,0.5,0.8c0,0,0,0,0,0l-1.1,5.4l3.2,0.7
	c0.2,0,0.4,0.2,0.5,0.4c0.1,0.2,0,0.5-0.1,0.6l-6.5,8.2C18.6,67.9,18.4,68,18.1,68z"/>
<path class="st0" d="M103.1,68c-0.3-0.1-0.6-0.4-0.5-0.8c0,0,0,0,0,0l1.1-5.3l-3.4-0.7c-0.4-0.1-0.6-0.4-0.5-0.8
	c0-0.1,0.1-0.2,0.1-0.3l6.6-8.2c0.1-0.2,0.4-0.3,0.6-0.2c0.4,0.1,0.6,0.4,0.5,0.8c0,0,0,0,0,0l-1.1,5.4l3.2,0.7
	c0.2,0,0.4,0.2,0.5,0.4c0.1,0.2,0,0.5-0.1,0.6l-6.5,8.2C103.6,67.9,103.4,68,103.1,68z"/>
<rect y="0" class="st2" width="120" height="120"/>
</svg>
