<?xml version="1.0" encoding="utf-8"?>
<!-- Generator: Adobe Illustrator 21.0.0, SVG Export Plug-In . SVG Version: 6.00 Build 0)  -->
<svg version="1.1" id="圖層_1" xmlns="http://www.w3.org/2000/svg" xmlns:xlink="http://www.w3.org/1999/xlink" x="0px" y="0px"
	 viewBox="0 0 120 120" style="enable-background:new 0 0 120 120;" xml:space="preserve">
<style type="text/css">
	.st0{fill:#FFFFFF;}
	.st1{fill:#FFA700;}
	.st2{fill:none;}
</style>
<g transform="translate(15 87)">
	<path d="M44,2.8c-2.4,0-4.5-0.7-6.1-2c-1.2-1.1-2.7-3.1-2.7-6.5c0-2,0.2-3.6,0.4-5.2l1.1-8.2H21.8L19.9-5.3
		c-0.3,2.6-1.4,4.7-3.2,6.1c-1.6,1.3-3.6,2-5.9,2c-2.4,0-4.5-0.7-6-2C3.6-0.3,2.1-2.3,2.1-5.8c0-1.7,0.2-3.2,0.4-4.8l0.1-0.4
		l5.3-38.2l0,0l0,0c0.4-2.6,1.5-4.7,3.2-6.1c1.6-1.3,3.6-2,5.8-2c2.4,0,4.5,0.7,6.1,2c1.3,1.1,2.7,3.1,2.7,6.6c0,1.6-0.2,3-0.4,4.4
		c0,0.2-0.1,0.5-0.1,0.7l-1.1,7.9h14.9l1.8-13.5l0,0l0,0c0.4-2.6,1.5-4.7,3.2-6.1c1.6-1.3,3.6-2,5.8-2c2.4,0,4.5,0.7,6.1,2
		c1.3,1.1,2.7,3.1,2.7,6.6c0,1.7-0.2,3.2-0.4,5.2L53-5.2l0,0l0,0c-0.4,2.6-1.5,4.7-3.2,6.1C48.2,2.1,46.2,2.8,44,2.8z"/>
	<path class="st0" d="M16.9-55.2c-3.4,0-6.4,1.9-7,6.4L4.6-10.6C4.3-9,4.1-7.4,4.1-5.8c0,4.6,3.2,6.6,6.8,6.6c3.4,0,6.5-1.9,7-6.3
		l2.2-15.6h19l-1.4,10.5c-0.2,1.7-0.4,3.2-0.4,4.9c0,4.6,3.1,6.6,6.8,6.6c3.4,0,6.4-1.9,7-6.3l5.3-38.2c0.2-1.8,0.4-3.2,0.4-4.9
		c0-4.7-3.2-6.6-6.8-6.6c-3.4,0-6.4,1.9-7,6.4l-2.1,15.3h-19l1.4-10.2c0.2-1.8,0.5-3.2,0.5-4.9C23.7-53.3,20.5-55.2,16.9-55.2
		 M16.9-59.2c2.9,0,5.4,0.9,7.4,2.5c1.6,1.3,3.4,3.9,3.4,8.1c0,1.7-0.2,3.2-0.4,4.7c0,0.2-0.1,0.5-0.1,0.7l-0.8,5.6h10.9l1.6-11.8
		l0,0l0,0c0.4-3.1,1.8-5.6,3.9-7.4c1.9-1.6,4.4-2.4,7.1-2.4c2.9,0,5.4,0.9,7.4,2.5c1.6,1.3,3.4,3.9,3.4,8.1c0,1.8-0.2,3.4-0.4,5.4
		l0,0l0,0L55-5l0,0l0,0c-0.4,3.1-1.8,5.6-3.9,7.3C49.1,4,46.7,4.8,44,4.8c-2.9,0-5.5-0.9-7.4-2.5c-1.6-1.3-3.4-3.8-3.4-8.1
		c0-2.1,0.2-3.9,0.4-5.4l0.8-5.9H23.6L21.9-5c-0.4,3.1-1.7,5.6-3.9,7.4c-1.9,1.6-4.4,2.4-7.1,2.4C8,4.8,5.5,3.9,3.5,2.3
		C2,1,0.1-1.5,0.1-5.8c0-1.8,0.2-3.5,0.5-5l0.1-0.4l5.3-38.2l0,0l0,0c0.4-3.1,1.8-5.6,3.9-7.4C11.7-58.4,14.1-59.2,16.9-59.2z"/>
</g>
<g transform="translate(78 87)">
	<path class="st1" d="M10.9,2.8c-2.4,0-4.5-0.7-6-2C3.6-0.3,2.1-2.3,2.1-5.8c0-1.7,0.2-3.2,0.4-4.8l0.1-0.4l5.3-38.2l0,0l0,0
		c0.4-2.6,1.5-4.7,3.2-6.1c1.6-1.3,3.6-2,5.8-2c2.4,0,4.5,0.7,6.1,2c1.3,1.1,2.7,3.1,2.7,6.6c0,1.6-0.2,3-0.4,4.4
		c0,0.2-0.1,0.5-0.1,0.7L19.9-5.2l0,0l0,0c-0.4,2.6-1.5,4.7-3.2,6.1C15.2,2.1,13.1,2.8,10.9,2.8z"/>
	<path class="st0" d="M16.9-55.2c-3.4,0-6.4,1.9-7,6.4L4.6-10.6C4.3-9,4.1-7.4,4.1-5.8c0,4.6,3.2,6.6,6.8,6.6c3.4,0,6.4-1.9,7-6.3
		l5.3-38.2c0.2-1.8,0.5-3.2,0.5-4.9C23.7-53.3,20.5-55.2,16.9-55.2 M16.9-59.2c2.9,0,5.4,0.9,7.4,2.5c1.6,1.3,3.4,3.9,3.4,8.1
		c0,1.7-0.2,3.2-0.4,4.7c0,0.2-0.1,0.5-0.1,0.7l0,0l0,0L21.9-5l0,0l0,0c-0.4,3.1-1.8,5.6-3.9,7.3c-1.9,1.6-4.4,2.4-7.1,2.4
		C8,4.8,5.5,3.9,3.5,2.3C2,1,0.1-1.5,0.1-5.8c0-1.8,0.2-3.5,0.5-5l0.1-0.4l5.3-38.2l0,0l0,0c0.4-3.1,1.8-5.6,3.9-7.4
		C11.7-58.4,14.1-59.2,16.9-59.2z"/>
</g>
<path class="st0" d="M88.1,82c-0.3-0.1-0.6-0.4-0.5-0.8c0,0,0,0,0,0l1.1-5.3l-3.4-0.7c-0.4-0.1-0.6-0.4-0.5-0.8
	c0-0.1,0.1-0.2,0.1-0.3l6.6-8.2c0.1-0.2,0.4-0.3,0.6-0.2c0.4,0.1,0.6,0.4,0.5,0.8c0,0,0,0,0,0l-1.1,5.4l3.2,0.7
	c0.2,0,0.4,0.2,0.5,0.4c0.1,0.2,0,0.5-0.1,0.6l-6.5,8.2C88.6,81.9,88.4,82,88.1,82z"/>
<path class="st0" d="M91.1,55c-0.3-0.1-0.6-0.4-0.5-0.8c0,0,0,0,0,0l1.1-5.3l-3.4-0.7c-0.4-0.1-0.6-0.4-0.5-0.8
	c0-0.1,0.1-0.2,0.1-0.3l6.6-8.2c0.1-0.2,0.4-0.3,0.6-0.2c0.4,0.1,0.6,0.4,0.5,0.8c0,0,0,0,0,0l-1.1,5.4l3.2,0.7
	c0.2,0,0.4,0.2,0.5,0.4c0.1,0.2,0,0.5-0.1,0.6l-6.5,8.2C91.6,54.9,91.4,55,91.1,55z"/>
<rect y="0" class="st2" width="120" height="120"/>
</svg>
