<?xml version="1.0" encoding="utf-8"?>
<!-- Generator: Adobe Illustrator 21.0.0, SVG Export Plug-In . SVG Version: 6.00 Build 0)  -->
<svg version="1.1" id="圖層_1" xmlns="http://www.w3.org/2000/svg" xmlns:xlink="http://www.w3.org/1999/xlink" x="0px" y="0px"
	 viewBox="0 0 64 64" style="enable-background:new 0 0 64 64;" xml:space="preserve">
<style type="text/css">
	.st0{clip-path:url(#SVGID_2_);}
	.st1{fill:#FFFFFF;}
	.st2{fill:none;stroke:#000000;stroke-width:2;}
	.st3{stroke:#000000;stroke-width:2;stroke-linejoin:round;}
	.st4{fill:none;stroke:#000000;stroke-width:2;stroke-linecap:round;stroke-linejoin:round;}
	.st5{fill:none;stroke:#000000;}
	.st6{fill:none;}
</style>
<g>
	<defs>
		<circle id="SVGID_1_" cx="32" cy="32" r="32"/>
	</defs>
	<clipPath id="SVGID_2_">
		<use xlink:href="#SVGID_1_"  style="overflow:visible;"/>
	</clipPath>
	<g class="st0">
		<circle cx="32" cy="32" r="32"/>
		<g transform="translate(-1406 -1921)">
			<path class="st1" d="M1459,1986h-1h-40h-1v-1v-44v-0.4l0.3-0.3l6-6l0.7-0.7l0.7,0.7l5.7,5.7h15.2l5.7-5.7l0.7-0.7l0.7,0.7l6,5.9
				l0.3,0.3v0.4v44.1V1986z"/>
			<path class="st1" d="M1458,1985v-44.1l-6-5.9l-6,6h-16l-6-6l-6,6v44H1458 M1458,1987h-40c-1.1,0-2-0.9-2-2v-44
				c0-0.5,0.2-1,0.6-1.4l6-6c0.4-0.4,0.9-0.6,1.4-0.6s1,0.2,1.4,0.6l5.4,5.4h14.3l5.4-5.4c0.4-0.4,0.9-0.6,1.4-0.6
				c0.5,0,1,0.2,1.4,0.6l6,5.9c0.4,0.4,0.6,0.9,0.6,1.4v44.1C1460,1986.1,1459.1,1987,1458,1987z"/>
		</g>
		<g transform="translate(20 30)">
			<circle cx="2" cy="2" r="2"/>
			<circle class="st2" cx="2" cy="2" r="1"/>
		</g>
		<path class="st3" d="M32,36l-2-2h4L32,36z"/>
		<path class="st4" d="M24,38l4,2l4-2l4,2l4-2"/>
		<g transform="translate(40 30)">
			<circle cx="2" cy="2" r="2"/>
			<circle class="st2" cx="2" cy="2" r="1"/>
		</g>
		<line class="st2" x1="32" y1="38" x2="32" y2="34"/>
		<g transform="translate(24 48)">
			<path d="M8,0L8,0c4.4,0,8,3.6,8,8v8l0,0H0l0,0V8C0,3.6,3.6,0,8,0z"/>
			<path class="st2" d="M8,1L8,1c3.9,0,7,3.1,7,7v6c0,0.6-0.4,1-1,1H2c-0.6,0-1-0.4-1-1V8C1,4.1,4.1,1,8,1z"/>
		</g>
		<line class="st5" x1="11" y1="36" x2="18" y2="36"/>
		<line class="st5" x1="46" y1="36" x2="53" y2="36"/>
		<line class="st5" x1="11" y1="38" x2="18" y2="38"/>
		<line class="st5" x1="46" y1="38" x2="53" y2="38"/>
		<g>
			<circle class="st6" cx="32" cy="32" r="32"/>
			<circle class="st2" cx="32" cy="32" r="31"/>
		</g>
	</g>
</g>
</svg>
