<?xml version="1.0" encoding="utf-8"?>
<!-- Generator: Adobe Illustrator 21.0.0, SVG Export Plug-In . SVG Version: 6.00 Build 0)  -->
<svg version="1.1" id="圖層_1" xmlns="http://www.w3.org/2000/svg" xmlns:xlink="http://www.w3.org/1999/xlink" x="0px" y="0px"
	 viewBox="0 0 64 64" style="enable-background:new 0 0 64 64;" xml:space="preserve">
<style type="text/css">
	.st0{clip-path:url(#SVGID_2_);}
	.st1{fill:none;stroke:#000000;stroke-width:2;}
	.st2{fill:#FFFFFF;}
	.st3{fill:none;}
	.st4{fill:none;stroke:#000000;stroke-width:2;stroke-linecap:round;}
	.st5{fill:none;stroke:#000000;stroke-width:2;stroke-linecap:round;stroke-linejoin:round;}
</style>
<g>
	<defs>
		<circle id="SVGID_1_" cx="32" cy="32" r="32"/>
	</defs>
	<clipPath id="SVGID_2_">
		<use xlink:href="#SVGID_1_"  style="overflow:visible;"/>
	</clipPath>
	<g class="st0">
		<g>
			<circle cx="32" cy="32" r="32"/>
			<circle class="st1" cx="32" cy="32" r="31"/>
		</g>
		<g>
			<path class="st2" d="M53,67h-1H12h-1v-1V16v-0.7l0.6-0.3l10-4l1.4-0.5V12v3h6.8l3.8-1.9l1.3-0.6l0.2,1.4l0.1,1.1h6.7l9.8-3.9
				l1.4-0.5V12v4v50V67z"/>
			<path class="st2" d="M52,66V16v-4l-10,4h-7.8L34,14l-4,2h-8v-4l-10,4v50H52 M54,68h-2H12h-2v-2V16v-1.4l1.3-0.5l10-4L24,9v3v2
				h5.5l3.6-1.8l2.6-1.3l0.3,2.8l0,0.2h5.6l9.6-3.9L54,9v3v4v50V68z"/>
		</g>
		<g transform="translate(21 30)">
			<circle cx="2" cy="2" r="2"/>
			<circle class="st1" cx="2" cy="2" r="1"/>
		</g>
		<g transform="translate(30 31)">
			<circle cx="2" cy="2" r="2"/>
			<circle class="st1" cx="2" cy="2" r="1"/>
		</g>
		<g transform="translate(39 30)">
			<circle cx="2" cy="2" r="2"/>
			<circle class="st1" cx="2" cy="2" r="1"/>
		</g>
		<g>
			<circle class="st3" cx="32" cy="32" r="32"/>
			<circle class="st1" cx="32" cy="32" r="31"/>
		</g>
		<line class="st1" x1="32" y1="37" x2="32" y2="33"/>
		<path class="st4" d="M28,38l4-2l4,2"/>
		<path class="st5" d="M44,50l-4-2l-4,2l-4-2l-4,2l-4-2l-4,2"/>
		<path class="st5" d="M44,55l-4-2l-4,2l-4-2l-4,2l-4-2l-4,2"/>
	</g>
</g>
</svg>
