<?xml version="1.0" encoding="utf-8"?>
<!-- Generator: Adobe Illustrator 21.0.0, SVG Export Plug-In . SVG Version: 6.00 Build 0)  -->
<svg version="1.1" id="圖層_1" xmlns="http://www.w3.org/2000/svg" xmlns:xlink="http://www.w3.org/1999/xlink" x="0px" y="0px"
	 viewBox="0 0 64 64" style="enable-background:new 0 0 64 64;" xml:space="preserve">
<style type="text/css">
	.st0{clip-path:url(#SVGID_2_);}
	.st1{fill:none;stroke:#000000;stroke-width:2;}
	.st2{fill:#FFFFFF;}
	.st3{stroke:#000000;stroke-width:2;stroke-linejoin:round;}
	.st4{fill:none;stroke:#000000;stroke-width:2;stroke-linecap:round;stroke-linejoin:round;}
	.st5{fill:none;}
	.st6{stroke:#000000;}
</style>
<g>
	<defs>
		<circle id="SVGID_1_" cx="32" cy="32" r="32"/>
	</defs>
	<clipPath id="SVGID_2_">
		<use xlink:href="#SVGID_1_"  style="overflow:visible;"/>
	</clipPath>
	<g class="st0">
		<g>
			<circle cx="32" cy="32" r="32"/>
			<circle class="st1" cx="32" cy="32" r="31"/>
		</g>
		<g transform="translate(-1406 -1921)">
			<path class="st2" d="M1459,1986h-1h-40h-1v-1v-44v-6v-1.6l1.4,0.7l11.8,5.9h15.5l11.8-5.9l1.4-0.7v1.6v5.9v44.1V1986z"/>
			<path class="st2" d="M1458,1985v-44.1v-5.9l-12,6h-16l-12-6v6v44H1458 M1458,1987h-40c-1.1,0-2-0.9-2-2v-44v-6
				c0-0.7,0.4-1.3,0.9-1.7c0.3-0.2,0.7-0.3,1.1-0.3c0.3,0,0.6,0.1,0.9,0.2l11.6,5.8h15.1l11.6-5.8c0.3-0.1,0.6-0.2,0.9-0.2
				c0.4,0,0.7,0.1,1.1,0.3c0.6,0.4,0.9,1,0.9,1.7v5.9v44.1C1460,1986.1,1459.1,1987,1458,1987z"/>
		</g>
		<g transform="translate(20 30)">
			<circle cx="2" cy="2" r="2"/>
			<circle class="st1" cx="2" cy="2" r="1"/>
		</g>
		<path class="st3" d="M32,36l-2-2h4L32,36z"/>
		<path class="st4" d="M24,38l4,2l4-2l4,2l4-2"/>
		<g transform="translate(40 30)">
			<circle cx="2" cy="2" r="2"/>
			<circle class="st1" cx="2" cy="2" r="1"/>
		</g>
		<line class="st1" x1="32" y1="38" x2="32" y2="34"/>
		<g>
			<circle class="st5" cx="32" cy="32" r="32"/>
			<circle class="st1" cx="32" cy="32" r="31"/>
		</g>
		<g transform="translate(26 26)">
			<circle cx="1" cy="1" r="1"/>
			<circle class="st1" cx="1" cy="1" r="0"/>
		</g>
		<g transform="translate(36 26)">
			<circle cx="1" cy="1" r="1"/>
			<circle class="st1" cx="1" cy="1" r="0"/>
		</g>
		<path class="st6" d="M24,64l1.1-4.6L26,56h-2l8-6l8,6h-2l2,8H24z"/>
	</g>
</g>
</svg>
