<?xml version="1.0" encoding="utf-8"?>
<!-- Generator: Adobe Illustrator 21.0.0, SVG Export Plug-In . SVG Version: 6.00 Build 0)  -->
<svg version="1.1" id="圖層_1" xmlns="http://www.w3.org/2000/svg" xmlns:xlink="http://www.w3.org/1999/xlink" x="0px" y="0px"
	 viewBox="0 0 64 64" style="enable-background:new 0 0 64 64;" xml:space="preserve">
<style type="text/css">
	.st0{clip-path:url(#SVGID_2_);}
	.st1{fill:none;stroke:#000000;stroke-width:2;}
	.st2{fill:#FFFFFF;}
	.st3{fill:none;}
	.st4{fill:none;stroke:#000000;stroke-width:2;stroke-linecap:round;}
</style>
<g>
	<defs>
		<circle id="SVGID_1_" cx="32" cy="32" r="32"/>
	</defs>
	<clipPath id="SVGID_2_">
		<use xlink:href="#SVGID_1_"  style="overflow:visible;"/>
	</clipPath>
	<g class="st0">
		<g>
			<circle cx="32" cy="32" r="32"/>
			<circle class="st1" cx="32" cy="32" r="31"/>
		</g>
		<g transform="translate(0 -2)">
			<path class="st2" d="M53,67h-1H12h-1v-1V16v-2.4l1.7,1.7l3.3,3.3l3.3-3.3l0.7-0.7l0.7,0.7l3.3,3.3l3.3-3.3l0.7-0.7l0.7,0.7
				l3.3,3.3l3.3-3.3l0.7-0.7l0.7,0.7l3.3,3.3l3.3-3.3l0.7-0.7l0.7,0.7l3.3,3.3l3.3-3.3l1.7-1.7V16v50V67z"/>
			<path class="st2" d="M52,66V16l-4,4l-4-4l-4,4l-4-4l-4,4l-4-4l-4,4l-4-4l-4,4l-4-4v50H52 M54,68h-2H12h-2v-2V16v-4.8l3.4,3.4
				l2.6,2.6l2.6-2.6l1.4-1.4l1.4,1.4l2.6,2.6l2.6-2.6l1.4-1.4l1.4,1.4l2.6,2.6l2.6-2.6l1.4-1.4l1.4,1.4l2.6,2.6l2.6-2.6l1.4-1.4
				l1.4,1.4l2.6,2.6l2.6-2.6l3.4-3.4V16v50V68z"/>
		</g>
		<g transform="translate(21 30)">
			<circle cx="2" cy="2" r="2"/>
			<circle class="st1" cx="2" cy="2" r="1"/>
		</g>
		<g transform="translate(39 30)">
			<circle cx="2" cy="2" r="2"/>
			<circle class="st1" cx="2" cy="2" r="1"/>
		</g>
		<g transform="translate(36 27)">
			<circle class="st3" cx="5" cy="5" r="5"/>
			<circle class="st1" cx="5" cy="5" r="4"/>
		</g>
		<g>
			<circle class="st3" cx="32" cy="32" r="32"/>
			<circle class="st1" cx="32" cy="32" r="31"/>
		</g>
		<path class="st4" d="M21,40h24"/>
		<g transform="translate(0 -2)">
			<path d="M31.5,61.7V60v-3.5H28h-0.9l0.5-0.8l4-6l0.9-1.4V50v3.5H36h0.9l-0.5,0.8l-4,6L31.5,61.7z"/>
			<path d="M32,50l-4,6h4v4l4-6h-4V50 M33,46.7V50v3h3h1.9l-1,1.6l-4,6L31,63.3V60v-3h-3h-1.9l1-1.6l4-6L33,46.7z"/>
		</g>
	</g>
</g>
</svg>
