<?xml version="1.0" encoding="utf-8"?>
<!-- Generator: Adobe Illustrator 21.0.0, SVG Export Plug-In . SVG Version: 6.00 Build 0)  -->
<svg version="1.1" id="圖層_1" xmlns="http://www.w3.org/2000/svg" xmlns:xlink="http://www.w3.org/1999/xlink" x="0px" y="0px"
	 viewBox="0 0 64 64" style="enable-background:new 0 0 64 64;" xml:space="preserve">
<style type="text/css">
	.st0{clip-path:url(#SVGID_2_);}
	.st1{fill:none;stroke:#000000;stroke-width:2;}
	.st2{fill:#FFFFFF;}
	.st3{fill:none;}
	.st4{fill:none;stroke:#000000;stroke-width:2;stroke-linecap:round;}
</style>
<g>
	<defs>
		<circle id="SVGID_1_" cx="32" cy="32" r="32"/>
	</defs>
	<clipPath id="SVGID_2_">
		<use xlink:href="#SVGID_1_"  style="overflow:visible;"/>
	</clipPath>
	<g class="st0">
		<g>
			<circle cx="32" cy="32" r="32"/>
			<circle class="st1" cx="32" cy="32" r="31"/>
		</g>
		<g transform="translate(0 -2)">
			<path class="st2" d="M53,67h-1H12h-1v-1V16v-1.2l1.2,0.2L24,16.9l1.3-1.6l0.4-0.5l0.7,0.2l5.4,1.8l1.6-1.6l0.4-0.4l0.6,0.2
				l5.8,1.9l11.8-2l1.2-0.2V16v50V67z"/>
			<path class="st2" d="M52,66V16l-12,2l-6-2l-2,2l-6-2l-1.6,2L12,16v50H52 M54,68h-2H12h-2v-2V16v-2.3l2.3,0.4l11.2,1.8l0.9-1.1
				l0.9-1.1l1.3,0.4l4.8,1.6l1.1-1.1l0.9-0.9l1.2,0.4l5.5,1.8L51.7,14l2.3-0.4V16v50V68z"/>
		</g>
		<g transform="translate(21 30)">
			<circle cx="2" cy="2" r="2"/>
			<circle class="st1" cx="2" cy="2" r="1"/>
		</g>
		<g transform="translate(30 34)">
			<circle cx="2" cy="2" r="2"/>
			<circle class="st1" cx="2" cy="2" r="1"/>
		</g>
		<g transform="translate(39 30)">
			<circle cx="2" cy="2" r="2"/>
			<circle class="st1" cx="2" cy="2" r="1"/>
		</g>
		<g transform="translate(36 27)">
			<circle class="st3" cx="5" cy="5" r="5"/>
			<circle class="st1" cx="5" cy="5" r="4"/>
		</g>
		<g transform="translate(18 27)">
			<circle class="st3" cx="5" cy="5" r="5"/>
			<circle class="st1" cx="5" cy="5" r="4"/>
		</g>
		<g>
			<circle class="st3" cx="32" cy="32" r="32"/>
			<circle class="st1" cx="32" cy="32" r="31"/>
		</g>
		<line class="st4" x1="28" y1="40" x2="36" y2="40"/>
		<line class="st1" x1="32" y1="40" x2="32" y2="36"/>
		<line class="st4" x1="19" y1="47" x2="19" y2="51"/>
		<line class="st4" x1="45" y1="47" x2="45" y2="51"/>
		<line class="st4" x1="25" y1="49" x2="25" y2="53"/>
		<line class="st4" x1="32" y1="51" x2="32" y2="55"/>
		<line class="st4" x1="29" y1="59" x2="29" y2="63"/>
		<line class="st4" x1="35" y1="59" x2="35" y2="63"/>
		<line class="st4" x1="39" y1="49" x2="39" y2="53"/>
		<line class="st4" x1="22" y1="55" x2="22" y2="58"/>
		<line class="st4" x1="17" y1="57" x2="17" y2="61"/>
		<path class="st4" d="M42,55v3"/>
		<line class="st4" x1="47" y1="57" x2="47" y2="61"/>
	</g>
</g>
</svg>
