<?xml version="1.0" encoding="utf-8"?>
<!-- Generator: Adobe Illustrator 21.0.0, SVG Export Plug-In . SVG Version: 6.00 Build 0)  -->
<svg version="1.1" id="圖層_1" xmlns="http://www.w3.org/2000/svg" xmlns:xlink="http://www.w3.org/1999/xlink" x="0px" y="0px"
	 viewBox="0 0 64 64" style="enable-background:new 0 0 64 64;" xml:space="preserve">
<style type="text/css">
	.st0{clip-path:url(#SVGID_2_);}
	.st1{fill:none;stroke:#000000;stroke-width:2;}
	.st2{fill:#FFFFFF;}
	.st3{fill:none;stroke:#000000;stroke-width:2;stroke-linecap:round;stroke-linejoin:round;}
	.st4{fill:none;}
	.st5{fill:none;stroke:#000000;stroke-width:2;stroke-linecap:round;}
</style>
<g>
	<defs>
		<circle id="SVGID_1_" cx="32" cy="32" r="32"/>
	</defs>
	<clipPath id="SVGID_2_">
		<use xlink:href="#SVGID_1_"  style="overflow:visible;"/>
	</clipPath>
	<g class="st0">
		<g>
			<circle cx="32" cy="32" r="32"/>
			<circle class="st1" cx="32" cy="32" r="31"/>
		</g>
		<g transform="translate(-1406 -1921)">
			<path class="st2" d="M1459,1986h-1h-40h-1v-1v-44v-6v-1.8l1.5,0.9l9.8,5.9h3.2l5.7-7.6l0.8-1.1l0.8,1.1l5.7,7.6h3.2l9.8-5.9
				l1.5-0.9v1.8v5.9v44.1V1986z"/>
			<path class="st2" d="M1458,1985v-44.1v-5.9l-10,6h-4l-6-8l-6,8h-4l-10-6v6v44H1458 M1458,1987h-40c-1.1,0-2-0.9-2-2v-44v-6
				c0-0.7,0.4-1.4,1-1.7c0.3-0.2,0.6-0.3,1-0.3c0.4,0,0.7,0.1,1,0.3l9.5,5.7h2.4l5.4-7.2c0.4-0.5,1-0.8,1.6-0.8s1.2,0.3,1.6,0.8
				l5.4,7.2h2.4l9.5-5.7c0.3-0.2,0.7-0.3,1-0.3c0.3,0,0.7,0.1,1,0.3c0.6,0.4,1,1,1,1.7v5.9v44.1C1460,1986.1,1459.1,1987,1458,1987z
				"/>
		</g>
		<g transform="translate(21 30)">
			<circle cx="2" cy="2" r="2"/>
			<circle class="st1" cx="2" cy="2" r="1"/>
		</g>
		<g transform="translate(29 29)">
			<circle cx="3" cy="3" r="3"/>
			<circle class="st1" cx="3" cy="3" r="2"/>
		</g>
		<path class="st3" d="M20,40l4,2l4-2l4,2l4-2l4,2l4-2"/>
		<g transform="translate(39 30)">
			<circle cx="2" cy="2" r="2"/>
			<circle class="st1" cx="2" cy="2" r="1"/>
		</g>
		<g transform="translate(36 27)">
			<circle class="st4" cx="5" cy="5" r="5"/>
			<circle class="st1" cx="5" cy="5" r="4"/>
		</g>
		<g transform="translate(18 27)">
			<circle class="st4" cx="5" cy="5" r="5"/>
			<circle class="st1" cx="5" cy="5" r="4"/>
		</g>
		<g transform="translate(26 26)">
			<circle class="st4" cx="6" cy="6" r="6"/>
			<circle class="st1" cx="6" cy="6" r="5"/>
		</g>
		<g>
			<circle class="st4" cx="32" cy="32" r="32"/>
			<circle class="st1" cx="32" cy="32" r="31"/>
		</g>
		<line class="st5" x1="25" y1="53" x2="25" y2="65"/>
		<line class="st5" x1="32" y1="53" x2="32" y2="65"/>
		<line class="st5" x1="39" y1="53" x2="39" y2="65"/>
	</g>
</g>
</svg>
